<svg width="400" height="238" viewBox="0 0 400 238" fill="none" xmlns="http://www.w3.org/2000/svg">
<g clip-path="url(#clip0_18_7184)">
<path d="M0 230.603V117.698H81.2488V138.209H21.32V169.063H64.8493V188.772H21.32V230.61H0V230.603Z" fill="black"/>
<path d="M176.223 209.283H117.103L107.409 230.603H84.311L135.034 117.531H158.293L209.009 230.603H185.75L176.217 209.283H176.223ZM146.667 141.278L125.668 189.414H167.666L146.667 141.278Z" fill="url(#paint0_linear_18_7184)"/>
<path fill-rule="evenodd" clip-rule="evenodd" d="M265.702 117.537C234.48 117.537 209.169 142.848 209.169 174.07C209.169 205.298 234.48 230.609 265.702 230.609C278.155 230.609 289.668 226.581 299.009 219.757L308.558 229.306L320.925 216.939L311.376 207.391C318.204 198.046 322.234 186.528 322.234 174.07C322.234 142.848 296.923 117.537 265.702 117.537Z" fill="black"/>
<path d="M18.0242 230.602C18.0242 228.784 19.5017 227.306 21.3202 227.306C23.1386 227.306 24.6161 228.784 24.6161 230.602C24.6161 232.421 23.1386 233.898 21.3202 233.898C19.5017 233.898 18.0242 232.421 18.0242 230.602ZM21.3202 235.904C24.2417 235.904 26.6218 233.524 26.6218 230.602C26.6218 227.681 24.2417 225.301 21.3202 225.301C18.3986 225.301 16.0186 227.681 16.0186 230.602C16.0186 233.524 18.3986 235.904 21.3202 235.904Z" fill="#111416"/>
<path d="M17.0211 229.6H8.63075C8.07586 229.6 7.62793 230.048 7.62793 230.602C7.62793 231.157 8.07586 231.605 8.63075 231.605H17.0211C17.5759 231.605 18.0239 231.157 18.0239 230.602C18.0239 230.048 17.5759 229.6 17.0211 229.6Z" fill="#111416"/>
<path d="M22.3225 226.311V202.069C22.3225 201.514 21.8746 201.066 21.3197 201.066C20.7648 201.066 20.3169 201.514 20.3169 202.069V226.311C20.3169 226.866 20.7648 227.314 21.3197 227.314C21.8746 227.314 22.3225 226.866 22.3225 226.311Z" fill="#111416"/>
<path d="M61.553 188.771C61.553 186.953 63.0305 185.475 64.849 185.475C66.6674 185.475 68.1449 186.953 68.1449 188.771C68.1449 190.59 66.6674 192.067 64.849 192.067C63.0305 192.067 61.553 190.59 61.553 188.771ZM64.849 194.073C67.7705 194.073 70.1506 191.693 70.1506 188.771C70.1506 185.85 67.7705 183.47 64.849 183.47C61.9274 183.47 59.5474 185.85 59.5474 188.771C59.5474 191.693 61.9274 194.073 64.849 194.073Z" fill="#111416"/>
<path d="M60.5506 187.769H35.7675C35.2126 187.769 34.7646 188.216 34.7646 188.771C34.7646 189.326 35.2126 189.774 35.7675 189.774H60.5506C61.1055 189.774 61.5534 189.326 61.5534 188.771C61.5534 188.216 61.1055 187.769 60.5506 187.769Z" fill="#111416"/>
<path d="M65.8523 184.472V169.062C65.8523 168.507 65.4044 168.06 64.8495 168.06C64.2946 168.06 63.8467 168.507 63.8467 169.062V184.472C63.8467 185.027 64.2946 185.475 64.8495 185.475C65.4044 185.475 65.8523 185.027 65.8523 184.472Z" fill="#111416"/>
<path d="M22.3225 196.386V188.771C22.3225 188.216 21.8746 187.769 21.3197 187.769C20.7648 187.769 20.3169 188.216 20.3169 188.771V196.386C20.3169 196.941 20.7648 197.389 21.3197 197.389C21.8746 197.389 22.3225 196.941 22.3225 196.386Z" fill="#111416"/>
<path d="M264.231 184.915H262.473C262.412 181.552 262.573 179.038 262.954 177.373C263.335 175.709 264.331 173.416 265.942 170.494C267.554 167.572 268.603 165.226 269.111 163.454C269.619 161.682 269.873 159.496 269.873 156.889C269.873 152.864 269.078 149.896 267.493 147.991C265.909 146.085 264.03 145.129 261.864 145.129C260.22 145.129 258.829 145.57 257.712 146.44C256.87 147.101 256.442 147.797 256.442 148.519C256.442 149 256.73 149.756 257.305 150.778C258.602 153.098 259.257 155.077 259.257 156.702C259.257 158.179 258.749 159.416 257.739 160.412C256.73 161.408 255.466 161.903 253.955 161.903C252.264 161.903 250.84 161.308 249.697 160.111C248.547 158.915 247.972 157.337 247.972 155.378C247.972 151.815 249.516 148.693 252.611 146.005C255.707 143.317 260.026 141.974 265.581 141.974C271.465 141.974 275.95 143.371 279.032 146.179C282.108 148.98 283.652 152.363 283.652 156.334C283.652 159.209 282.857 161.87 281.265 164.31C279.674 166.75 276.599 169.451 272.039 172.419C268.978 174.418 266.972 176.197 266.002 177.754C265.04 179.312 264.451 181.699 264.231 184.908V184.915ZM263.87 191.506C265.902 191.506 267.627 192.215 269.058 193.639C270.482 195.063 271.197 196.788 271.197 198.814C271.197 200.839 270.482 202.571 269.058 204.008C267.634 205.439 265.902 206.161 263.87 206.161C261.837 206.161 260.106 205.439 258.682 204.008C257.258 202.571 256.542 200.839 256.542 198.814C256.542 196.788 257.258 195.063 258.682 193.639C260.106 192.222 261.837 191.506 263.87 191.506Z" fill="white"/>
<g style="mix-blend-mode:multiply">
<path d="M132.059 85.9153H128.542C128.422 79.1897 128.743 74.1622 129.512 70.8262C130.274 67.4968 132.266 62.9038 135.488 57.0607C138.704 51.2176 140.817 46.5177 141.833 42.9744C142.849 39.4311 143.351 35.0521 143.351 29.8441C143.351 21.788 141.759 15.8513 138.584 12.0339C135.408 8.21648 131.651 6.30442 127.312 6.30442C124.016 6.30442 121.242 7.18022 119.002 8.93182C117.311 10.2622 116.462 11.6461 116.462 13.0969C116.462 14.0596 117.037 15.5705 118.186 17.623C120.787 22.2694 122.091 26.2205 122.091 29.4764C122.091 32.4313 121.075 34.9117 119.056 36.8973C117.03 38.8829 114.509 39.8857 111.488 39.8857C108.098 39.8857 105.257 38.689 102.964 36.3022C100.664 33.9155 99.5205 30.7533 99.5205 26.8289C99.5205 19.7022 102.616 13.4445 108.813 8.06271C114.997 2.68757 123.648 0 134.76 0C146.54 0 155.512 2.80122 161.669 8.41036C167.833 14.0195 170.915 20.7919 170.915 28.7276C170.915 34.4838 169.324 39.7988 166.135 44.6859C162.953 49.5663 156.795 54.9748 147.676 60.9183C141.552 64.9162 137.528 68.4795 135.602 71.6017C133.67 74.7238 132.493 79.4973 132.066 85.922L132.059 85.9153ZM131.33 99.1125C135.395 99.1125 138.851 100.537 141.706 103.378C144.561 106.226 145.991 109.676 145.991 113.727C145.991 117.778 144.561 121.248 141.706 124.123C138.851 126.991 135.395 128.435 131.33 128.435C127.265 128.435 123.802 126.998 120.948 124.123C118.093 121.248 116.669 117.778 116.669 113.727C116.669 109.676 118.093 106.226 120.948 103.378C123.802 100.537 127.259 99.1125 131.33 99.1125Z" fill="black"/>
</g>
<path d="M202.611 107.384C210.561 103.734 214.046 94.3317 210.397 86.3824C206.747 78.4331 197.344 74.9474 189.395 78.597C181.446 82.2465 177.96 91.6493 181.61 99.5986C185.259 107.548 194.662 111.034 202.611 107.384Z" fill="black"/>
<path d="M197.128 98.6583V89.4858H197.67V87.4801H193.451V89.4858H195.123V98.6583H192.783V100.664H199.381V98.6583H197.128ZM196.005 85.2939C196.687 85.2939 197.242 84.7391 197.242 84.0571C197.242 83.3752 196.687 82.8203 196.005 82.8203C195.323 82.8203 194.768 83.3752 194.768 84.0571C194.768 84.7391 195.323 85.2939 196.005 85.2939Z" fill="#111416"/>
<g style="mix-blend-mode:multiply">
<path d="M160.626 46.8787C160.185 45.9628 159.931 44.9466 159.931 43.8636C159.931 40.0127 163.053 36.8906 166.897 36.8906C168.415 36.8906 169.819 37.3786 170.962 38.2009C172.085 35.2326 174.953 33.1133 178.322 33.1133C182.113 33.1133 185.282 35.7942 186.024 39.3709C186.706 39.0968 187.455 38.943 188.237 38.943C191.52 38.943 194.174 41.6039 194.174 44.8798C194.174 45.5817 194.047 46.2503 193.819 46.872H160.613L160.626 46.8787Z" fill="url(#paint1_linear_18_7184)"/>
</g>
<path d="M260.748 125.848C262.386 125.681 264.05 125.6 265.708 125.6C266.263 125.6 266.711 125.152 266.711 124.598C266.711 124.043 266.263 123.595 265.708 123.595C263.99 123.595 262.252 123.682 260.547 123.855C259.999 123.909 259.598 124.404 259.651 124.952C259.705 125.5 260.199 125.901 260.748 125.848Z" fill="white"/>
<path d="M250.579 128.014C252.144 127.506 253.755 127.064 255.366 126.71C255.908 126.59 256.249 126.055 256.135 125.513C256.015 124.972 255.48 124.631 254.938 124.744C253.253 125.112 251.575 125.567 249.951 126.102C249.423 126.275 249.135 126.837 249.309 127.365C249.483 127.893 250.044 128.181 250.573 128.007L250.579 128.014Z" fill="white"/>
<path d="M241.113 132.293C242.53 131.457 244.014 130.688 245.518 130C246.02 129.772 246.24 129.171 246.013 128.669C245.779 128.168 245.184 127.947 244.683 128.174C243.118 128.89 241.581 129.692 240.103 130.561C239.628 130.842 239.468 131.457 239.742 131.932C240.023 132.406 240.638 132.567 241.113 132.286V132.293Z" fill="white"/>
<path d="M232.769 138.497C233.979 137.38 235.263 136.311 236.58 135.321C237.021 134.987 237.115 134.358 236.781 133.917C236.446 133.476 235.818 133.382 235.377 133.717C234.006 134.746 232.669 135.863 231.405 137.026C230.998 137.4 230.971 138.035 231.352 138.443C231.726 138.851 232.361 138.878 232.769 138.497Z" fill="white"/>
<path d="M225.943 146.338C226.886 144.988 227.916 143.671 228.992 142.421C229.353 142 229.306 141.371 228.885 141.003C228.464 140.642 227.835 140.689 227.468 141.11C226.345 142.414 225.275 143.785 224.292 145.189C223.978 145.643 224.085 146.265 224.539 146.586C224.994 146.9 225.616 146.793 225.937 146.338H225.943Z" fill="white"/>
<path d="M220.942 155.451C221.577 153.927 222.299 152.423 223.081 150.972C223.349 150.484 223.162 149.875 222.68 149.615C222.192 149.347 221.584 149.534 221.323 150.016C220.508 151.527 219.752 153.091 219.09 154.676C218.876 155.184 219.117 155.772 219.632 155.986C220.14 156.2 220.728 155.959 220.942 155.444V155.451Z" fill="white"/>
<path d="M218.007 165.419C218.302 163.802 218.689 162.17 219.144 160.586C219.298 160.051 218.99 159.496 218.462 159.342C217.927 159.189 217.372 159.496 217.219 160.024C216.737 161.676 216.343 163.367 216.035 165.052C215.935 165.6 216.296 166.121 216.844 166.222C217.392 166.322 217.914 165.961 218.014 165.413L218.007 165.419Z" fill="white"/>
<path d="M217.259 175.788C217.205 174.143 217.232 172.479 217.339 170.827C217.379 170.272 216.958 169.798 216.403 169.758C215.848 169.717 215.373 170.139 215.333 170.694C215.22 172.412 215.186 174.15 215.246 175.861C215.266 176.416 215.728 176.851 216.283 176.831C216.837 176.811 217.272 176.349 217.252 175.795L217.259 175.788Z" fill="white"/>
<path d="M218.736 186.078C218.328 184.486 218.001 182.849 217.76 181.211C217.68 180.662 217.172 180.288 216.624 180.368C216.075 180.448 215.701 180.957 215.781 181.505C216.035 183.21 216.376 184.914 216.798 186.572C216.938 187.107 217.479 187.435 218.014 187.294C218.549 187.161 218.877 186.612 218.736 186.078Z" fill="white"/>
<path d="M264.09 71.7554L265.702 71.742C266.256 71.742 266.704 71.294 266.704 70.7392C266.704 70.1843 266.256 69.7363 265.702 69.7363L264.057 69.7497C263.502 69.7564 263.061 70.2177 263.067 70.7659C263.074 71.3208 263.535 71.762 264.084 71.7554H264.09Z" fill="#111416"/>
<path d="M364.954 198.994C364.807 199.589 364.674 200.084 364.553 200.552C364.406 201.087 364.727 201.635 365.262 201.782C365.797 201.929 366.345 201.608 366.492 201.073C366.619 200.592 366.753 200.09 366.907 199.482C367.04 198.947 366.713 198.399 366.178 198.265C365.643 198.132 365.095 198.459 364.961 198.994H364.954Z" fill="#111416"/>
<path d="M366.746 190.249C366.653 190.844 366.566 191.358 366.479 191.833C366.379 192.381 366.746 192.896 367.288 192.996C367.836 193.097 368.351 192.729 368.451 192.187C368.538 191.699 368.625 191.165 368.725 190.563C368.812 190.015 368.438 189.5 367.89 189.413C367.341 189.326 366.827 189.7 366.74 190.249H366.746Z" fill="#111416"/>
<path d="M367.776 181.384C367.736 181.979 367.696 182.507 367.649 182.989C367.602 183.544 368.003 184.025 368.558 184.078C369.113 184.132 369.594 183.724 369.648 183.169C369.694 182.674 369.735 182.133 369.775 181.524C369.815 180.97 369.4 180.495 368.845 180.455C368.291 180.415 367.816 180.829 367.776 181.384Z" fill="#111416"/>
<path d="M368.023 172.459C368.037 173.081 368.037 173.596 368.037 174.07C368.037 174.625 368.485 175.073 369.033 175.08C369.588 175.08 370.036 174.632 370.042 174.084C370.042 173.596 370.042 173.067 370.029 172.432C370.022 171.877 369.561 171.436 369.006 171.45C368.451 171.456 368.01 171.917 368.023 172.472V172.459Z" fill="#111416"/>
<path d="M367.495 163.547C367.555 164.142 367.609 164.671 367.649 165.152C367.696 165.707 368.177 166.115 368.732 166.068C369.287 166.021 369.695 165.54 369.648 164.985C369.608 164.49 369.554 163.955 369.494 163.34C369.434 162.792 368.946 162.391 368.391 162.444C367.843 162.504 367.442 162.992 367.495 163.547Z" fill="#111416"/>
<path d="M366.192 154.716C366.305 155.298 366.399 155.819 366.486 156.301C366.579 156.849 367.101 157.21 367.642 157.116C368.191 157.023 368.552 156.501 368.458 155.96C368.371 155.465 368.278 154.93 368.157 154.335C368.05 153.793 367.522 153.439 366.981 153.539C366.439 153.646 366.085 154.175 366.185 154.716H366.192Z" fill="#111416"/>
<path d="M364.119 146.031C364.286 146.62 364.426 147.114 364.547 147.582C364.687 148.117 365.235 148.438 365.77 148.298C366.305 148.157 366.626 147.609 366.485 147.074C366.358 146.593 366.218 146.085 366.044 145.483C365.89 144.948 365.335 144.641 364.807 144.794C364.272 144.948 363.965 145.503 364.119 146.031Z" fill="#111416"/>
<path d="M361.304 137.561C361.518 138.123 361.705 138.611 361.866 139.065C362.053 139.587 362.628 139.861 363.149 139.674C363.671 139.486 363.945 138.911 363.758 138.39C363.591 137.922 363.403 137.414 363.183 136.839C362.982 136.324 362.401 136.063 361.886 136.264C361.371 136.465 361.11 137.046 361.311 137.561H361.304Z" fill="#111416"/>
<path d="M357.754 129.371C358.022 129.919 358.242 130.381 358.443 130.822C358.677 131.323 359.272 131.544 359.773 131.317C360.275 131.083 360.495 130.488 360.268 129.986C360.061 129.531 359.833 129.057 359.559 128.495C359.319 128.001 358.717 127.793 358.215 128.034C357.721 128.275 357.513 128.876 357.754 129.378V129.371Z" fill="#111416"/>
<path d="M353.509 121.515C353.816 122.023 354.084 122.478 354.324 122.899C354.599 123.381 355.214 123.548 355.695 123.274C356.176 122.999 356.343 122.384 356.069 121.903C355.822 121.469 355.548 121.001 355.234 120.479C354.946 120.004 354.331 119.851 353.856 120.138C353.382 120.426 353.228 121.041 353.516 121.515H353.509Z" fill="#111416"/>
<path d="M348.595 114.068C348.95 114.55 349.25 114.978 349.525 115.372C349.839 115.827 350.467 115.94 350.922 115.626C351.376 115.312 351.49 114.684 351.176 114.229C350.888 113.821 350.581 113.38 350.22 112.885C349.892 112.437 349.264 112.337 348.816 112.665C348.368 112.992 348.268 113.621 348.595 114.068Z" fill="#111416"/>
<path d="M343.053 107.068C343.461 107.536 343.795 107.924 344.096 108.291C344.45 108.719 345.079 108.779 345.506 108.425C345.934 108.071 345.994 107.442 345.64 107.015C345.326 106.64 344.985 106.239 344.57 105.758C344.209 105.343 343.574 105.296 343.153 105.657C342.739 106.018 342.692 106.653 343.053 107.075V107.068Z" fill="#111416"/>
<path d="M336.915 100.583C337.37 101.018 337.731 101.379 338.059 101.706C338.446 102.101 339.081 102.107 339.476 101.713C339.87 101.325 339.87 100.69 339.483 100.296C339.142 99.9547 338.767 99.587 338.306 99.1391C337.905 98.7513 337.276 98.7647 336.889 99.1658C336.501 99.567 336.514 100.202 336.915 100.583Z" fill="#111416"/>
<path d="M330.243 94.6536C330.745 95.0547 331.126 95.3756 331.48 95.6764C331.901 96.0375 332.536 95.984 332.891 95.5628C333.252 95.1416 333.198 94.5065 332.777 94.1522C332.409 93.8379 332.015 93.517 331.5 93.0958C331.072 92.7482 330.437 92.8151 330.089 93.2429C329.742 93.6708 329.809 94.3059 330.237 94.6536H330.243Z" fill="#111416"/>
<path d="M323.076 89.3318C323.591 89.6795 324.012 89.9669 324.4 90.241C324.855 90.5619 325.477 90.455 325.797 90.0004C326.118 89.5457 326.011 88.924 325.557 88.6031C325.156 88.3223 324.728 88.0215 324.193 87.6671C323.732 87.3596 323.11 87.4799 322.802 87.9412C322.495 88.4025 322.615 89.0243 323.076 89.3318Z" fill="#111416"/>
<path d="M315.468 84.658C316.01 84.9589 316.457 85.2129 316.865 85.4469C317.34 85.7277 317.955 85.5673 318.236 85.0859C318.517 84.6046 318.356 83.9962 317.875 83.7154C317.454 83.468 316.992 83.2073 316.437 82.8998C315.949 82.6323 315.341 82.8062 315.074 83.2942C314.806 83.7822 314.98 84.3906 315.468 84.658Z" fill="#111416"/>
<path d="M307.486 80.6602C308.061 80.9143 308.522 81.1282 308.943 81.3288C309.445 81.5628 310.04 81.3488 310.28 80.8541C310.514 80.3527 310.307 79.7577 309.806 79.517C309.365 79.3098 308.89 79.0891 308.302 78.8284C307.793 78.6011 307.205 78.8284 306.978 79.3365C306.751 79.8446 306.978 80.4329 307.486 80.6602Z" fill="#111416"/>
<path d="M299.189 77.3713C299.784 77.5785 300.266 77.7456 300.7 77.9061C301.222 78.1 301.797 77.8326 301.99 77.3111C302.184 76.7896 301.917 76.2147 301.402 76.0208C300.954 75.8536 300.453 75.6798 299.844 75.4659C299.323 75.2854 298.748 75.5662 298.567 76.0876C298.387 76.6091 298.668 77.1841 299.189 77.3646V77.3713Z" fill="#111416"/>
<path d="M290.632 74.824C291.241 74.9778 291.735 75.1048 292.19 75.2251C292.725 75.3722 293.273 75.058 293.42 74.5232C293.567 73.9883 293.253 73.4401 292.718 73.293C292.25 73.166 291.742 73.0323 291.12 72.8785C290.585 72.7448 290.037 73.0724 289.903 73.6072C289.77 74.1421 290.097 74.6903 290.632 74.824Z" fill="#111416"/>
<path d="M281.887 73.0256C282.502 73.1259 283.004 73.2061 283.472 73.293C284.02 73.3933 284.541 73.0323 284.635 72.4841C284.735 71.9426 284.374 71.4144 283.826 71.3208C283.345 71.2339 282.823 71.147 282.195 71.0467C281.646 70.9598 281.132 71.3342 281.045 71.8824C280.958 72.4306 281.332 72.9454 281.88 73.0323L281.887 73.0256Z" fill="#111416"/>
<path d="M273.022 72.0026C273.664 72.0494 274.158 72.0895 274.626 72.1296C275.175 72.1831 275.669 71.7753 275.716 71.2271C275.77 70.6722 275.362 70.1841 274.814 70.1373C274.332 70.0905 273.824 70.0504 273.169 70.0036C272.614 69.9635 272.139 70.3847 272.099 70.9329C272.059 71.4878 272.48 71.9625 273.029 72.0026H273.022Z" fill="#111416"/>
<path d="M329.582 114.884C329.582 103.017 339.202 93.3965 351.069 93.3965C362.935 93.3965 372.556 103.017 372.556 114.884C372.556 126.75 362.935 136.371 351.069 136.371C339.202 136.371 329.582 126.75 329.582 114.884Z" fill="url(#paint2_linear_18_7184)"/>
<path d="M350.347 120.62H349.431C349.397 118.848 349.484 117.524 349.685 116.642C349.885 115.766 350.407 114.556 351.256 113.012C352.098 111.474 352.653 110.23 352.921 109.301C353.188 108.365 353.322 107.215 353.322 105.838C353.322 103.712 352.907 102.148 352.085 101.145C351.263 100.142 350.287 99.634 349.163 99.634C348.308 99.634 347.586 99.868 346.997 100.329C346.549 100.684 346.329 101.051 346.329 101.432C346.329 101.686 346.483 102.088 346.783 102.629C347.472 103.859 347.813 104.909 347.813 105.771C347.813 106.553 347.545 107.209 347.011 107.737C346.476 108.265 345.807 108.526 345.005 108.526C344.109 108.526 343.354 108.211 342.752 107.576C342.144 106.941 341.843 106.106 341.843 105.063C341.843 103.171 342.658 101.513 344.283 100.089C345.908 98.6646 348.181 97.9492 351.102 97.9492C354.198 97.9492 356.551 98.6913 358.175 100.169C359.793 101.646 360.602 103.431 360.602 105.524C360.602 107.041 360.181 108.445 359.345 109.729C358.51 111.013 356.885 112.443 354.478 114.008C352.867 115.064 351.804 116 351.296 116.822C350.788 117.645 350.474 118.902 350.367 120.6L350.347 120.62ZM350.139 124.13C351.202 124.13 352.112 124.504 352.86 125.253C353.609 126.002 353.984 126.911 353.984 127.98C353.984 129.05 353.609 129.966 352.86 130.722C352.112 131.477 351.202 131.858 350.139 131.858C349.076 131.858 348.167 131.477 347.418 130.722C346.67 129.966 346.295 129.05 346.295 127.98C346.295 126.911 346.67 126.002 347.418 125.253C348.167 124.504 349.076 124.13 350.139 124.13Z" fill="white"/>
<path d="M276.372 103.906H269.359C268.804 103.906 268.356 104.354 268.356 104.909C268.356 105.464 268.804 105.912 269.359 105.912H276.372C276.927 105.912 277.375 105.464 277.375 104.909C277.375 104.354 276.927 103.906 276.372 103.906Z" fill="url(#paint3_linear_18_7184)"/>
<path d="M256.269 103.906H233.585C233.03 103.906 232.582 104.354 232.582 104.909C232.582 105.464 233.03 105.912 233.585 105.912H256.269C256.824 105.912 257.272 105.464 257.272 104.909C257.272 104.354 256.824 103.906 256.269 103.906Z" fill="url(#paint4_linear_18_7184)"/>
<path d="M108.927 92.1729H84.1903C83.6354 92.1729 83.1875 92.6208 83.1875 93.1757C83.1875 93.7306 83.6354 94.1785 84.1903 94.1785H108.927C109.482 94.1785 109.929 93.7306 109.929 93.1757C109.929 92.6208 109.482 92.1729 108.927 92.1729Z" fill="black"/>
<path d="M87.5329 102.629H74.8305C74.2756 102.629 73.8276 103.077 73.8276 103.632C73.8276 104.187 74.2756 104.635 74.8305 104.635H87.5329C88.0878 104.635 88.5357 104.187 88.5357 103.632C88.5357 103.077 88.0878 102.629 87.5329 102.629Z" fill="url(#paint5_linear_18_7184)"/>
<path d="M385.693 235.831H378.68C378.125 235.831 377.677 236.279 377.677 236.834C377.677 237.389 378.125 237.837 378.68 237.837H385.693C386.248 237.837 386.695 237.389 386.695 236.834C386.695 236.279 386.248 235.831 385.693 235.831Z" fill="url(#paint6_linear_18_7184)"/>
<path d="M365.589 235.831H319.332C318.778 235.831 318.33 236.279 318.33 236.834C318.33 237.389 318.778 237.837 319.332 237.837H365.589C366.144 237.837 366.592 237.389 366.592 236.834C366.592 236.279 366.144 235.831 365.589 235.831Z" fill="url(#paint7_linear_18_7184)"/>
<path d="M398.997 221.57H351.577C351.022 221.57 350.574 222.018 350.574 222.573C350.574 223.128 351.022 223.576 351.577 223.576H398.997C399.552 223.576 400 223.128 400 222.573C400 222.018 399.552 221.57 398.997 221.57Z" fill="black"/>
<path d="M236.245 114.649H203.674C203.119 114.649 202.671 115.097 202.671 115.652C202.671 116.207 203.119 116.655 203.674 116.655H236.245C236.8 116.655 237.248 116.207 237.248 115.652C237.248 115.097 236.8 114.649 236.245 114.649Z" fill="black"/>
<path d="M264.391 81.7968V84.7518C264.391 85.3067 264.839 85.7546 265.394 85.7546C265.949 85.7546 266.397 85.3067 266.397 84.7518V81.7968C266.397 81.2419 265.949 80.7939 265.394 80.7939C264.839 80.7939 264.391 81.2419 264.391 81.7968Z" fill="black"/>
<path d="M262.499 86.6436H259.544C258.989 86.6436 258.542 87.0915 258.542 87.6464C258.542 88.2013 258.989 88.6492 259.544 88.6492H262.499C263.054 88.6492 263.502 88.2013 263.502 87.6464C263.502 87.0915 263.054 86.6436 262.499 86.6436Z" fill="black"/>
<path d="M266.397 93.49V90.5351C266.397 89.9802 265.949 89.5322 265.394 89.5322C264.839 89.5322 264.391 89.9802 264.391 90.5351V93.49C264.391 94.0449 264.839 94.4929 265.394 94.4929C265.949 94.4929 266.397 94.0449 266.397 93.49Z" fill="black"/>
<path d="M268.296 88.6492H271.251C271.806 88.6492 272.254 88.2013 272.254 87.6464C272.254 87.0915 271.806 86.6436 271.251 86.6436H268.296C267.741 86.6436 267.293 87.0915 267.293 87.6464C267.293 88.2013 267.741 88.6492 268.296 88.6492Z" fill="black"/>
<path d="M340.151 201.675V204.63C340.151 205.185 340.599 205.633 341.154 205.633C341.709 205.633 342.157 205.185 342.157 204.63V201.675C342.157 201.12 341.709 200.672 341.154 200.672C340.599 200.672 340.151 201.12 340.151 201.675Z" fill="url(#paint8_linear_18_7184)"/>
<path d="M338.253 206.521H335.298C334.743 206.521 334.295 206.969 334.295 207.524C334.295 208.079 334.743 208.527 335.298 208.527H338.253C338.808 208.527 339.256 208.079 339.256 207.524C339.256 206.969 338.808 206.521 338.253 206.521Z" fill="url(#paint9_linear_18_7184)"/>
<path d="M342.157 213.375V210.42C342.157 209.865 341.709 209.417 341.154 209.417C340.599 209.417 340.151 209.865 340.151 210.42V213.375C340.151 213.93 340.599 214.378 341.154 214.378C341.709 214.378 342.157 213.93 342.157 213.375Z" fill="url(#paint10_linear_18_7184)"/>
<path d="M344.049 208.527H347.004C347.559 208.527 348.007 208.079 348.007 207.524C348.007 206.969 347.559 206.521 347.004 206.521H344.049C343.494 206.521 343.046 206.969 343.046 207.524C343.046 208.079 343.494 208.527 344.049 208.527Z" fill="url(#paint11_linear_18_7184)"/>
<path d="M75.0979 156.414C75.0979 154.288 76.8295 152.556 78.9555 152.556C81.0815 152.556 82.813 154.288 82.813 156.414C82.813 158.54 81.0815 160.271 78.9555 160.271C76.8295 160.271 75.0979 158.54 75.0979 156.414ZM78.9555 162.277C82.1846 162.277 84.8186 159.65 84.8186 156.414C84.8186 153.178 82.1912 150.551 78.9555 150.551C75.7197 150.551 73.0923 153.178 73.0923 156.414C73.0923 159.65 75.7197 162.277 78.9555 162.277Z" fill="black"/>
</g>
<defs>
<linearGradient id="paint0_linear_18_7184" x1="171.6" y1="192.631" x2="53.7878" y2="140.397" gradientUnits="userSpaceOnUse">
<stop stop-color="#325FA6"/>
<stop offset="1" stop-color="#8485B5"/>
</linearGradient>
<linearGradient id="paint1_linear_18_7184" x1="183.901" y1="42.256" x2="164.547" y2="22.9" gradientUnits="userSpaceOnUse">
<stop stop-color="#325FA6"/>
<stop offset="1" stop-color="#8485B5"/>
</linearGradient>
<linearGradient id="paint2_linear_18_7184" x1="359.664" y1="121.939" x2="317.841" y2="105.125" gradientUnits="userSpaceOnUse">
<stop stop-color="#325FA6"/>
<stop offset="1" stop-color="#8485B5"/>
</linearGradient>
<linearGradient id="paint3_linear_18_7184" x1="274.669" y1="105.238" x2="272.28" y2="100.92" gradientUnits="userSpaceOnUse">
<stop stop-color="#325FA6"/>
<stop offset="1" stop-color="#8485B5"/>
</linearGradient>
<linearGradient id="paint4_linear_18_7184" x1="249.865" y1="105.238" x2="248.77" y2="99.8198" gradientUnits="userSpaceOnUse">
<stop stop-color="#325FA6"/>
<stop offset="1" stop-color="#8485B5"/>
</linearGradient>
<linearGradient id="paint5_linear_18_7184" x1="84.1233" y1="103.961" x2="82.4078" y2="98.9031" gradientUnits="userSpaceOnUse">
<stop stop-color="#325FA6"/>
<stop offset="1" stop-color="#8485B5"/>
</linearGradient>
<linearGradient id="paint6_linear_18_7184" x1="383.99" y1="237.163" x2="381.601" y2="232.845" gradientUnits="userSpaceOnUse">
<stop stop-color="#325FA6"/>
<stop offset="1" stop-color="#8485B5"/>
</linearGradient>
<linearGradient id="paint7_linear_18_7184" x1="352.113" y1="237.163" x2="351.537" y2="231.583" gradientUnits="userSpaceOnUse">
<stop stop-color="#325FA6"/>
<stop offset="1" stop-color="#8485B5"/>
</linearGradient>
<linearGradient id="paint8_linear_18_7184" x1="341.555" y1="203.967" x2="339.346" y2="203.608" gradientUnits="userSpaceOnUse">
<stop stop-color="#325FA6"/>
<stop offset="1" stop-color="#8485B5"/>
</linearGradient>
<linearGradient id="paint9_linear_18_7184" x1="337.767" y1="207.854" x2="334.948" y2="205.05" gradientUnits="userSpaceOnUse">
<stop stop-color="#325FA6"/>
<stop offset="1" stop-color="#8485B5"/>
</linearGradient>
<linearGradient id="paint10_linear_18_7184" x1="341.555" y1="212.712" x2="339.346" y2="212.353" gradientUnits="userSpaceOnUse">
<stop stop-color="#325FA6"/>
<stop offset="1" stop-color="#8485B5"/>
</linearGradient>
<linearGradient id="paint11_linear_18_7184" x1="346.519" y1="207.854" x2="343.699" y2="205.05" gradientUnits="userSpaceOnUse">
<stop stop-color="#325FA6"/>
<stop offset="1" stop-color="#8485B5"/>
</linearGradient>
<clipPath id="clip0_18_7184">
<rect width="400" height="237.837" fill="white"/>
</clipPath>
</defs>
</svg>
