<svg width="260" height="240" viewBox="0 0 260 240" fill="none" xmlns="http://www.w3.org/2000/svg">
<path d="M205 147H55.6666V56.3333H205V147Z" fill="white"/>
<path d="M199.667 141.666H61V61.666H199.667V141.666Z" fill="#FF8861"/>
<path d="M133 192.333H127.667V149.666H133V192.333Z" fill="white"/>
<path d="M170.615 193.526L149.281 150.86L154.052 148.473L175.385 191.14L170.615 193.526Z" fill="white"/>
<path d="M90.0521 193.526L85.2811 191.14L106.615 148.473L111.385 150.86L90.0521 193.526Z" fill="white"/>
<path d="M92.9999 152.333H50.3333V61.6663H55.6666V147H92.9999V152.333Z" fill="#292829"/>
<path d="M162.333 152.333H98.3333V147H162.333V152.333Z" fill="#292829"/>
<path d="M210.333 152.333H167.667V147H205V61.6663H210.333V152.333Z" fill="#292829"/>
<path d="M45 56.333V50.9997L50.3333 45.6663H106.333L117 34.9997H143.667L154.333 45.6663H210.333L215.667 50.9997V56.333H45Z" fill="url(#paint0_linear_71_2921)"/>
<path d="M215.667 195H45V189.667H215.667V195Z" fill="white"/>
<path d="M114.333 88.333C111.392 88.333 109 85.941 109 82.9997C109 80.0583 111.392 77.6663 114.333 77.6663C117.275 77.6663 119.667 80.0583 119.667 82.9997C119.667 85.941 117.275 88.333 114.333 88.333Z" fill="#292829"/>
<path d="M141 125.666C138.059 125.666 135.667 123.274 135.667 120.333C135.667 117.391 138.059 114.999 141 114.999C143.941 114.999 146.333 117.391 146.333 120.333C146.333 123.274 143.941 125.666 141 125.666Z" fill="#292829"/>
<path d="M87.6666 115H71.6666V109.667H87.6666C93.548 109.667 98.3333 104.881 98.3333 99V83C98.3333 74.1773 105.511 67 114.333 67C123.156 67 130.333 74.1773 130.333 83V88.3333H125V83C125 77.1187 120.215 72.3333 114.333 72.3333C108.452 72.3333 103.667 77.1187 103.667 83V99C103.667 107.823 96.4893 115 87.6666 115Z" fill="#292829"/>
<path d="M141 136.333C132.177 136.333 125 129.156 125 120.333V115H130.333V120.333C130.333 126.214 135.119 131 141 131C146.881 131 151.667 126.214 151.667 120.333V104.333C151.667 95.5103 158.844 88.333 167.667 88.333H189V93.6663H167.667C161.785 93.6663 157 98.4517 157 104.333V120.333C157 129.156 149.823 136.333 141 136.333Z" fill="#292829"/>
<path d="M180.219 103.552L176.448 99.7811L185.229 90.9997L176.448 82.2184L180.219 78.4477L192.771 90.9997L180.219 103.552Z" fill="#292829"/>
<path d="M130.333 99H125V93.6667H130.333V99Z" fill="#292829"/>
<path d="M130.333 109.666H125V104.333H130.333V109.666Z" fill="#292829"/>
<path d="M66.3333 67H61V61.6667H66.3333V67Z" fill="#292829"/>
<path d="M199.667 67H194.333V61.6667H199.667V67Z" fill="#292829"/>
<path d="M199.667 141.666H194.333V136.333H199.667V141.666Z" fill="#292829"/>
<path d="M66.3333 141.666H61V136.333H66.3333V141.666Z" fill="#292829"/>
<path d="M138.333 45.666H122.333V40.3327H138.333V45.666Z" fill="#292829"/>
<defs>
<linearGradient id="paint0_linear_71_2921" x1="164.467" y1="42.1639" x2="147.459" y2="96.8641" gradientUnits="userSpaceOnUse">
<stop stop-color="#9BC1F6"/>
<stop offset="1" stop-color="#CABAF8"/>
</linearGradient>
</defs>
</svg>
