<svg width="260" height="240" viewBox="0 0 260 240" fill="none" xmlns="http://www.w3.org/2000/svg">
<path d="M173 192.333H66.3335V48.333H173V192.333Z" fill="white"/>
<path d="M197 56.333H186.333V45.6663H197V56.333Z" fill="white"/>
<path d="M186.333 56.3333H197V184.333L191.667 195L186.333 184.333V56.3333Z" fill="url(#paint0_linear_71_2923)"/>
<path d="M135.667 45.6663C135.667 36.8303 128.503 29.6663 119.667 29.6663C110.831 29.6663 103.667 36.8303 103.667 45.6663H90.3335V56.333H149V45.6663H135.667Z" fill="white"/>
<path d="M167.667 187H71.6667V53.6667H167.667V187Z" fill="#FF8861"/>
<path d="M197 171H186.333V149.667H197V171Z" fill="white"/>
<path d="M178.333 197.667H61V43.0003H82.3333V48.3337H66.3333V192.334H173V48.3337H157V43.0003H178.333V197.667Z" fill="#292829"/>
<path d="M122.333 48.333H117V42.9997H122.333V48.333Z" fill="#292829"/>
<path d="M93.0001 83H87.6667V77.6667H93.0001V83Z" fill="#292829"/>
<path d="M151.667 83H98.3335V77.6667H151.667V83Z" fill="#292829"/>
<path d="M93.0001 93.667H87.6667V88.3337H93.0001V93.667Z" fill="#292829"/>
<path d="M151.667 93.667H98.3335V88.3337H151.667V93.667Z" fill="#292829"/>
<path d="M93.0001 104.333H87.6667V98.9997H93.0001V104.333Z" fill="#292829"/>
<path d="M151.667 104.333H98.3335V98.9997H151.667V104.333Z" fill="#292829"/>
<path d="M93.0001 115H87.6667V109.667H93.0001V115Z" fill="#292829"/>
<path d="M151.667 115H98.3335V109.667H151.667V115Z" fill="#292829"/>
<path d="M93.0001 125.667H87.6667V120.334H93.0001V125.667Z" fill="#292829"/>
<path d="M151.667 125.667H98.3335V120.334H151.667V125.667Z" fill="#292829"/>
<path d="M151.667 152.333H146.333V147H151.667V152.333Z" fill="#292829"/>
<path d="M141 152.333H119.667V147H141V152.333Z" fill="#292829"/>
<path d="M189 183.704L191.667 189.038L194.333 183.704V48.3337H189V183.704ZM191.667 197.667C190.656 197.667 189.733 197.096 189.281 196.194L183.948 185.527C183.763 185.156 183.667 184.748 183.667 184.334V45.667C183.667 44.195 184.861 43.0003 186.333 43.0003H197C198.472 43.0003 199.667 44.195 199.667 45.667V184.334C199.667 184.748 199.571 185.156 199.385 185.527L194.052 196.194C193.6 197.096 192.677 197.667 191.667 197.667Z" fill="#292829"/>
<path d="M197 173.667H186.333V168.334H197V173.667Z" fill="#292829"/>
<path d="M197 163H186.333V157.667H197V163Z" fill="#292829"/>
<path d="M197 152.333H186.333V147H197V152.333Z" fill="#292829"/>
<path d="M197 59H186.333V53.6667H197V59Z" fill="#292829"/>
<path d="M93.0001 53.6667H146.333V48.3333H133V45.6667C133 38.3147 127.019 32.3333 119.667 32.3333C112.315 32.3333 106.333 38.3147 106.333 45.6667V48.3333H93.0001V53.6667ZM151.667 59H87.6667V43H101.191C102.488 33.9667 110.279 27 119.667 27C129.055 27 136.845 33.9667 138.143 43H151.667V59Z" fill="#292829"/>
<defs>
<linearGradient id="paint0_linear_71_2923" x1="193.8" y1="102.901" x2="181.753" y2="103.273" gradientUnits="userSpaceOnUse">
<stop stop-color="#9BC1F6"/>
<stop offset="1" stop-color="#CABAF8"/>
</linearGradient>
</defs>
</svg>
