<svg width="260" height="240" viewBox="0 0 260 240" fill="none" xmlns="http://www.w3.org/2000/svg">
<path d="M122.333 58.999L103.667 69.6657V82.999H157V69.6657L138.333 58.999H122.333Z" fill="#EAE8E5"/>
<path d="M117 44.3327C117 53.666 122.235 61.666 130.333 61.666C138.432 61.666 143.667 53.666 143.667 44.3327C143.667 34.9993 141 29.666 130.333 29.666C119.667 29.666 117 34.9993 117 44.3327Z" fill="white"/>
<path d="M130.333 32.333C122.259 32.333 119.667 35.2477 119.667 44.333C119.667 51.4437 123.405 58.9997 130.333 58.9997C137.26 58.9997 141 51.4437 141 44.333C141 35.2477 138.409 32.333 130.333 32.333ZM130.333 64.333C121.212 64.333 114.333 55.7357 114.333 44.333C114.333 36.2623 116.152 26.9997 130.333 26.9997C144.516 26.9997 146.333 36.2623 146.333 44.333C146.333 55.7357 139.456 64.333 130.333 64.333Z" fill="#292829"/>
<path d="M186.333 82.9994L213 98.9994V120.333L207.667 125.666H165L159.667 120.333V104.333H101V120.333L95.6667 125.666H53.0001L47.6667 120.333V98.9994L74.3334 82.9994H186.333Z" fill="#FF8861"/>
<path d="M210.333 117.666H167.667V112.333H210.333V117.666Z" fill="#292829"/>
<path d="M93.0002 117.666H50.3335V112.333H93.0002V117.666Z" fill="#292829"/>
<path d="M95.6667 128.333H53C52.2933 128.333 51.6147 128.052 51.1147 127.552L45.7813 122.218C45.2813 121.718 45 121.04 45 120.333V98.9997C45 98.0637 45.4907 97.1944 46.2947 96.713L72.9613 80.713C73.376 80.465 73.8507 80.333 74.3333 80.333H95.668V85.6663H75.072L50.3333 100.51V119.229L54.104 123H94.5627L98.3333 119.229V107H103.667V120.333C103.667 121.04 103.385 121.718 102.885 122.218L97.552 127.552C97.052 128.052 96.3733 128.333 95.6667 128.333Z" fill="#292829"/>
<path d="M159.667 85.666H101V68.1193L121.011 56.6847L123.656 61.314L106.333 71.2127V80.3327H154.333V71.2127L137.011 61.314L139.656 56.6847L159.667 68.1193V85.666Z" fill="#292829"/>
<path d="M207.667 128.333H165C164.292 128.333 163.615 128.052 163.115 127.552L157.781 122.218C157.281 121.718 157 121.04 157 120.333V107H162.333V119.229L166.104 123H206.563L210.333 119.229V100.51L185.593 85.6663H165V80.333H186.333C186.817 80.333 187.292 80.465 187.705 80.713L214.372 96.713C215.175 97.1944 215.667 98.0637 215.667 98.9997V120.333C215.667 121.04 215.385 121.718 214.885 122.218L209.552 127.552C209.052 128.052 208.375 128.333 207.667 128.333Z" fill="#292829"/>
<path d="M167.667 106.999H93V101.666H167.667V106.999Z" fill="#292829"/>
<path d="M122.333 128.333H117V123H122.333V128.333Z" fill="#292829"/>
<path d="M133 128.333H127.667V123H133V128.333Z" fill="#292829"/>
<path d="M143.667 128.333H138.333V123H143.667V128.333Z" fill="#292829"/>
<path d="M194.333 170.999L213 181.666C213 181.666 213 185.25 213 189.666C213 194.085 210.333 197.666 207.667 197.666H53.0001C50.3334 197.666 47.6667 194.085 47.6667 189.666C47.6667 185.25 47.6667 181.666 47.6667 181.666L66.3334 170.999H82.3334L101 181.666L122.333 170.999H138.333L159.667 181.666L178.333 170.999H194.333Z" fill="url(#paint0_linear_71_2922)"/>
<path d="M87.6667 156.333C87.6667 165.666 82.432 173.666 74.3333 173.666C66.2347 173.666 61 165.666 61 156.333C61 146.999 63.6667 141.666 74.3333 141.666C85 141.666 87.6667 146.999 87.6667 156.333Z" fill="white"/>
<path d="M143.667 156.333C143.667 165.666 138.432 173.666 130.333 173.666C122.235 173.666 117 165.666 117 156.333C117 146.999 119.667 141.666 130.333 141.666C141 141.666 143.667 146.999 143.667 156.333Z" fill="white"/>
<path d="M199.667 156.333C199.667 165.666 194.432 173.666 186.333 173.666C178.235 173.666 173 165.666 173 156.333C173 146.999 175.667 141.666 186.333 141.666C197 141.666 199.667 146.999 199.667 156.333Z" fill="white"/>
<path d="M48.9896 183.98L46.3442 179.351L65.0109 168.685L67.6562 173.314L48.9896 183.98Z" fill="#292829"/>
<path d="M211.677 183.98L193.011 173.314L195.656 168.685L214.323 179.351L211.677 183.98Z" fill="#292829"/>
<path d="M159.751 184.69L137.14 173.385L139.527 168.614L159.584 178.642L177.011 168.685L179.656 173.314L159.751 184.69Z" fill="#292829"/>
<path d="M100.917 184.69L81.0107 173.314L83.6561 168.685L101.084 178.642L121.14 168.614L123.527 173.385L100.917 184.69Z" fill="#292829"/>
<path d="M74.3335 144.333C66.2588 144.333 63.6668 147.249 63.6668 156.333C63.6668 163.444 67.4055 171 74.3335 171C81.2615 171 85.0002 163.444 85.0002 156.333C85.0002 147.249 82.4082 144.333 74.3335 144.333ZM74.3335 176.333C65.2122 176.333 58.3335 167.736 58.3335 156.333C58.3335 148.262 60.1522 139 74.3335 139C88.5148 139 90.3335 148.262 90.3335 156.333C90.3335 167.736 83.4548 176.333 74.3335 176.333Z" fill="#292829"/>
<path d="M130.333 144.333C122.259 144.333 119.667 147.249 119.667 156.333C119.667 163.444 123.405 171 130.333 171C137.26 171 141 163.444 141 156.333C141 147.249 138.409 144.333 130.333 144.333ZM130.333 176.333C121.212 176.333 114.333 167.736 114.333 156.333C114.333 148.262 116.152 139 130.333 139C144.516 139 146.333 148.262 146.333 156.333C146.333 167.736 139.456 176.333 130.333 176.333Z" fill="#292829"/>
<path d="M186.333 144.333C178.257 144.333 175.667 147.249 175.667 156.333C175.667 163.444 179.407 171 186.333 171C193.26 171 197 163.444 197 156.333C197 147.249 194.409 144.333 186.333 144.333ZM186.333 176.333C177.211 176.333 170.333 167.736 170.333 156.333C170.333 148.262 172.151 139 186.333 139C200.516 139 202.333 148.262 202.333 156.333C202.333 167.736 195.456 176.333 186.333 176.333Z" fill="#292829"/>
<path d="M103.667 189.666H98.3335V181.666H103.667V189.666Z" fill="#292829"/>
<path d="M162.333 189.666H157V181.666H162.333V189.666Z" fill="#292829"/>
<defs>
<linearGradient id="paint0_linear_71_2922" x1="163.4" y1="179.955" x2="137.488" y2="244.544" gradientUnits="userSpaceOnUse">
<stop stop-color="#9BC1F6"/>
<stop offset="1" stop-color="#CABAF8"/>
</linearGradient>
</defs>
</svg>
