<svg width="50" height="50" viewBox="0 0 50 50" fill="none" xmlns="http://www.w3.org/2000/svg">
<g clip-path="url(#clip0_62_292)">
<path d="M38.7281 0H11.2719C5.04659 0 0 5.04659 0 11.2719V38.7281C0 44.9534 5.04659 50 11.2719 50H38.7281C44.9534 50 50 44.9534 50 38.7281V11.2719C50 5.04659 44.9534 0 38.7281 0Z" fill="white"/>
<path d="M24.9951 9.11523C34.1873 9.11523 41.666 15.1842 41.666 22.6436C41.6659 25.6246 40.5082 28.3185 38.0928 30.9668C34.5959 34.9934 26.7748 39.898 24.9951 40.6465C23.2158 41.3946 23.4783 40.1679 23.5518 39.7461C23.594 39.4955 23.7891 38.3193 23.7891 38.3193C23.8453 37.8943 23.9031 37.2333 23.7344 36.8115C23.5481 36.3478 22.8092 36.1074 22.2656 35.9902C14.2627 34.9324 8.32538 29.3309 8.3252 22.6436C8.3252 15.1843 15.8031 9.11539 24.9951 9.11523ZM28.4814 19.0391C28.3986 19.0391 28.3183 19.0723 28.2598 19.1309C28.2016 19.1894 28.169 19.269 28.1689 19.3516V23.6738L24.8408 19.1787C24.8333 19.167 24.8244 19.1553 24.8145 19.1455L24.7949 19.127L24.7783 19.1123H24.7686L24.752 19.1006H24.7422L24.7246 19.0908H23.4014C23.3186 19.0909 23.2392 19.1241 23.1807 19.1826C23.1223 19.2412 23.0889 19.3206 23.0889 19.4033V26.6787C23.0891 26.7613 23.1223 26.841 23.1807 26.8994C23.2392 26.9578 23.3187 26.9911 23.4014 26.9912H24.584C24.6667 26.9912 24.7471 26.9578 24.8057 26.8994C24.864 26.841 24.8963 26.7612 24.8965 26.6787V22.3145L28.2295 26.8145C28.2512 26.8461 28.2789 26.8738 28.3105 26.8955L28.3301 26.9082H28.3389L28.3545 26.916H28.4033C28.4308 26.9228 28.459 26.9263 28.4873 26.9268H29.6621C29.7448 26.9268 29.8252 26.8934 29.8838 26.835C29.9421 26.7765 29.9745 26.6968 29.9746 26.6143V19.3584C29.9754 19.317 29.9684 19.2749 29.9531 19.2363C29.9378 19.1978 29.9147 19.1624 29.8857 19.1328C29.8567 19.1032 29.8215 19.0796 29.7832 19.0635C29.745 19.0475 29.7036 19.0391 29.6621 19.0391H28.4814ZM20.4326 19.0391C20.2568 19.0393 20.1143 19.1825 20.1143 19.3584V26.6328C20.1145 26.8085 20.2569 26.9519 20.4326 26.9521H21.6143C21.7901 26.9521 21.9324 26.8086 21.9326 26.6328V19.3584C21.9326 19.1824 21.7902 19.0391 21.6143 19.0391H20.4326ZM31.4316 19.0537C31.3488 19.0537 31.2685 19.086 31.21 19.1445C31.1515 19.2031 31.1191 19.2835 31.1191 19.3662V26.6396C31.1194 26.7222 31.1516 26.802 31.21 26.8604C31.2685 26.9188 31.3489 26.9521 31.4316 26.9521H36.1191C36.1609 26.9521 36.2028 26.943 36.2412 26.9268C36.2796 26.9104 36.3147 26.8864 36.3438 26.8564C36.3728 26.8264 36.3961 26.79 36.4111 26.751C36.426 26.7121 36.433 26.6696 36.4316 26.6279V25.4473C36.4316 25.3646 36.3982 25.2851 36.3398 25.2266C36.2813 25.168 36.2019 25.1349 36.1191 25.1348H32.9355V23.9062H36.1191C36.2017 23.9062 36.2814 23.8728 36.3398 23.8145C36.3982 23.756 36.4315 23.6763 36.4316 23.5938V22.4004C36.4316 22.3177 36.3982 22.2382 36.3398 22.1797C36.2813 22.1212 36.2019 22.088 36.1191 22.0879H32.9355V20.8613H36.1191C36.2017 20.8612 36.2814 20.8279 36.3398 20.7695C36.3982 20.7111 36.4315 20.6314 36.4316 20.5488V19.3662C36.4316 19.2834 36.3983 19.2031 36.3398 19.1445C36.2813 19.0861 36.2018 19.0538 36.1191 19.0537H31.4316ZM14.1123 19.0518C14.0297 19.0519 13.9501 19.0842 13.8916 19.1426C13.8332 19.2012 13.7998 19.2815 13.7998 19.3643V26.6348C13.8 26.7173 13.8332 26.7971 13.8916 26.8555C13.9501 26.9138 14.0297 26.9472 14.1123 26.9473H18.7998L18.7949 26.9512C18.8776 26.9512 18.958 26.9187 19.0166 26.8604C19.0751 26.8019 19.1073 26.7214 19.1074 26.6387V25.458C19.1074 25.3752 19.0751 25.2949 19.0166 25.2363C18.958 25.1778 18.8778 25.1455 18.7949 25.1455H15.6123V19.3643C15.6123 19.2815 15.58 19.2012 15.5215 19.1426C15.4629 19.084 15.3827 19.0518 15.2998 19.0518H14.1123Z" fill="url(#paint0_linear_62_292)"/>
</g>
<defs>
<linearGradient id="paint0_linear_62_292" x1="31.6638" y1="30.2149" x2="-0.331802" y2="16.7146" gradientUnits="userSpaceOnUse">
<stop stop-color="#325FA6"/>
<stop offset="1" stop-color="#894FC4"/>
</linearGradient>
<clipPath id="clip0_62_292">
<rect width="50" height="50" fill="white"/>
</clipPath>
</defs>
</svg>
