<svg width="121" height="50" viewBox="0 0 121 50" fill="none" xmlns="http://www.w3.org/2000/svg">
<g clip-path="url(#clip0_62_312)">
<path d="M120.279 10.7864C120.279 10.7864 119.574 5.88829 117.411 3.72918C114.669 0.899077 111.593 0.884699 110.185 0.716954C100.093 -0.00195312 84.9563 -0.00195312 84.9563 -0.00195312H84.9248C84.9248 -0.00195312 69.7877 -0.00195312 59.6939 0.716954C58.283 0.882303 55.2121 0.896681 52.4678 3.72918C50.3067 5.8859 49.6025 10.7864 49.6025 10.7864C49.6025 10.7864 48.8813 16.5377 48.8813 22.2914V27.6856C48.8813 33.4392 49.6025 39.1905 49.6025 39.1905C49.6025 39.1905 50.3067 44.0886 52.4678 46.2477C55.2121 49.0802 58.8154 48.9892 60.4199 49.2863C66.1892 49.8327 84.9393 50.0004 84.9393 50.0004C84.9393 50.0004 100.093 49.9789 110.185 49.26C111.593 49.0946 114.669 49.0802 117.411 46.2477C119.574 44.0886 120.279 39.1905 120.279 39.1905C120.279 39.1905 121 33.4368 121 27.6856V22.2914C121 16.5377 120.279 10.7864 120.279 10.7864Z" fill="white"/>
<path d="M45.162 40.4629H40.5737V37.8317C38.8337 39.8063 37.36 40.8032 35.7507 40.8032C34.3398 40.8032 33.3597 40.1442 32.8709 38.9532C32.5732 38.2295 32.3627 37.0984 32.3627 35.4401V16.31H36.951V35.9194C37.0575 36.5904 37.3479 36.8348 37.9287 36.8348C38.8071 36.8348 39.6009 36.0799 40.5737 34.7212V16.31H45.162V40.4629ZM24.3912 33.2882C24.6332 35.6798 23.883 36.8659 22.4576 36.8659C21.0322 36.8659 20.2844 35.6798 20.5264 33.2882V23.7219C20.2844 21.3304 21.0322 20.2089 22.4576 20.2089C23.883 20.2089 24.6332 21.3304 24.3936 23.7219V33.2882H24.3912ZM28.9795 24.2012C28.9795 21.6203 28.4568 19.6817 27.5299 18.4619C26.3078 16.8084 24.3912 16.1327 22.4576 16.1327C20.2723 16.1327 18.6074 16.8084 17.3853 18.4619C16.4439 19.6817 15.9405 21.6419 15.9405 24.2228L15.9357 32.8113C15.9357 35.3778 16.3834 37.1511 17.3248 38.3589C18.5469 40.0052 20.5264 40.8775 22.4576 40.8775C24.3888 40.8775 26.4046 40.0052 27.6267 38.3589C28.5512 37.1511 28.9795 35.3778 28.9795 32.8113V24.2012ZM10.8658 27.3093V40.4629H6.0379V27.3093C6.0379 27.3093 1.03334 11.1842 0 8.17915H5.07232L8.46274 20.7744L11.8362 8.17676H16.9085L10.8706 27.3069L10.8658 27.3093Z" fill="white"/>
<path d="M106.262 22.995C106.262 20.7592 106.882 20.1505 108.341 20.1505C109.8 20.1505 110.367 20.8167 110.367 23.0262V25.6358L106.262 25.6406V22.995ZM114.965 29.2231V24.3346C114.965 21.7801 114.457 19.9109 113.542 18.7031C112.317 17.0688 110.577 16.2013 108.382 16.2013C106.187 16.2013 104.409 17.0664 103.145 18.7031C102.216 19.9109 101.674 21.8855 101.674 24.44V32.8105C101.674 35.3506 102.269 37.1263 103.199 38.3221C104.464 39.954 106.204 40.7712 108.491 40.7712C110.778 40.7712 112.569 39.9157 113.779 38.1807C114.311 37.4139 114.655 36.5464 114.803 35.5879C114.841 35.1541 114.958 34.1668 114.958 32.7722V32.094H110.369C110.369 33.8313 110.379 34.8642 110.338 35.099C110.088 36.2565 109.462 36.8364 108.385 36.8364C106.884 36.8364 106.248 35.7245 106.265 33.5198V29.2255H114.967L114.965 29.2231ZM94.1867 33.527C94.1867 35.9186 93.618 36.8364 92.3571 36.8364C91.6384 36.8364 90.8083 36.4697 90.0775 35.746L90.0823 21.2433C90.8132 20.5292 91.6384 20.1529 92.3571 20.1529C93.618 20.1529 94.1867 20.8551 94.1867 23.2466V33.5294V33.527ZM94.6949 16.1654C93.0856 16.1654 91.4884 17.1455 90.0751 18.8661L90.0799 8.41797H85.7336V40.4621H90.0799L90.0872 38.0537C91.5489 39.8438 93.1412 40.7688 94.6949 40.7688C96.4348 40.7688 97.7078 39.8462 98.291 38.0681C98.5814 37.0544 98.7726 35.4968 98.7726 33.285V23.7187C98.7726 21.4542 98.4797 19.9061 98.1869 18.9452C97.6037 17.1551 96.4324 16.1606 94.6924 16.1606M82.1084 40.4573H77.5201V37.8261C75.7801 39.8007 74.3064 40.7976 72.6971 40.7976C71.2862 40.7976 70.3061 40.1386 69.8173 38.9476C69.5196 38.2239 69.3066 37.0928 69.3066 35.4345V16.5488H73.895V35.9186C74.0014 36.5895 74.2894 36.834 74.8726 36.834C75.7511 36.834 76.5449 36.0791 77.5177 34.7204V16.5488H82.106V40.4621L82.1084 40.4573Z" fill="url(#paint0_linear_62_312)"/>
<path d="M64.723 40.4625H59.8926V12.9595H54.8203V8.42081L70.0349 8.41602V12.9595H64.7205V40.4625H64.723Z" fill="url(#paint1_linear_62_312)"/>
</g>
<defs>
<linearGradient id="paint0_linear_62_312" x1="101.269" y1="29.9238" x2="62.2054" y2="7.7772" gradientUnits="userSpaceOnUse">
<stop stop-color="#325FA6"/>
<stop offset="1" stop-color="#894FC4"/>
</linearGradient>
<linearGradient id="paint1_linear_62_312" x1="65.4705" y1="29.7006" x2="48.875" y2="26.533" gradientUnits="userSpaceOnUse">
<stop stop-color="#325FA6"/>
<stop offset="1" stop-color="#894FC4"/>
</linearGradient>
<clipPath id="clip0_62_312">
<rect width="121" height="50" fill="white"/>
</clipPath>
</defs>
</svg>
