<svg width="260" height="240" viewBox="0 0 260 240" fill="none" xmlns="http://www.w3.org/2000/svg">
<path d="M58.3333 79.6667L47.6666 85V111.667L58.3333 117V79.6667Z" fill="white"/>
<path d="M63.6666 127.667L69 138.334H117L122.333 127.667H63.6666Z" fill="white"/>
<path d="M199.667 157L130.333 130.333V66.3333L199.667 39.6667V157Z" fill="#ACBEF6"/>
<path d="M74.3333 138.333V141L87.6666 189H109V138.333H74.3333Z" fill="#FF8861"/>
<path d="M130.333 127.667H58.3333V69.0003H130.333V127.667Z" fill="url(#paint0_linear_71_2920)"/>
<path d="M130.333 130.334H55.6666V66.334H130.333V71.6673H61V125.001H130.333V130.334Z" fill="#292829"/>
<path d="M57.1407 119.386L45 113.315V83.3524L57.1407 77.2817L59.526 82.0524L50.3333 86.6484V110.019L59.526 114.615L57.1407 119.386Z" fill="#292829"/>
<path d="M118.648 141H67.3515L61.2811 128.86L66.0521 126.473L70.6483 135.667H115.352L119.948 126.473L124.719 128.86L118.648 141Z" fill="#292829"/>
<path d="M210.333 154.334H205V42.334H210.333V154.334Z" fill="#FF8861"/>
<path d="M205 154.334H210.333V42.3337H205V154.334ZM213 159.667H202.333C200.861 159.667 199.667 158.472 199.667 157V39.667C199.667 38.195 200.861 37.0003 202.333 37.0003H213C214.472 37.0003 215.667 38.195 215.667 39.667V157C215.667 158.472 214.472 159.667 213 159.667Z" fill="#292829"/>
<path d="M114.333 90.334H77V85.0007H114.333V90.334Z" fill="#FF8861"/>
<path d="M77 90.3337H114.333V85.0003H77V90.3337ZM119.667 95.667H71.6666V79.667H119.667V95.667Z" fill="#292829"/>
<path d="M87.6666 106.334H82.3333V101.001H87.6666V106.334Z" fill="#292829"/>
<path d="M77 106.334H71.6666V101.001H77V106.334Z" fill="#292829"/>
<path d="M98.3333 106.334H93V101.001H98.3333V106.334Z" fill="#292829"/>
<path d="M109 106.334H103.667V101.001H109V106.334Z" fill="#292829"/>
<path d="M119.667 106.334H114.333V101.001H119.667V106.334Z" fill="#292829"/>
<path d="M213 95.667H202.333V90.3337H213V95.667Z" fill="#292829"/>
<path d="M213 85H202.333V79.6667H213V85Z" fill="#292829"/>
<path d="M213 74.334H202.333V69.0007H213V74.334Z" fill="#292829"/>
<path d="M213 63.667H202.333V58.3337H213V63.667Z" fill="#292829"/>
<path d="M213 53H202.333V47.6667H213V53Z" fill="#292829"/>
<path d="M213 149H202.333V143.667H213V149Z" fill="#292829"/>
<path d="M213 138.334H202.333V133.001H213V138.334Z" fill="#292829"/>
<path d="M213 127.667H202.333V122.334H213V127.667Z" fill="#292829"/>
<path d="M213 117H202.333V111.667H213V117Z" fill="#292829"/>
<path d="M213 106.334H202.333V101.001H213V106.334Z" fill="#292829"/>
<path d="M109 173H98.3333V167.667H109V173Z" fill="#292829"/>
<path d="M109 183.667H98.3333V178.334H109V183.667Z" fill="#292829"/>
<path d="M117 162.334H98.3333V157.001H114.333V151.667H109V146.334H117C118.472 146.334 119.667 147.529 119.667 149.001V159.667C119.667 161.139 118.472 162.334 117 162.334Z" fill="#292829"/>
<path d="M109 194.334H87.6666V189.001H109V194.334Z" fill="#292829"/>
<path d="M114.333 157H109V151.667H114.333V157Z" fill="white"/>
<path d="M194.333 101H135.667V95.6667H194.333V101Z" fill="#292829"/>
<defs>
<linearGradient id="paint0_linear_71_2920" x1="108.733" y1="88.7018" x2="43.2734" y2="121" gradientUnits="userSpaceOnUse">
<stop stop-color="#9BC1F6"/>
<stop offset="1" stop-color="#CABAF8"/>
</linearGradient>
</defs>
</svg>
