<?xml version="1.0" encoding="UTF-8"?>
<svg id="_圖層_1" data-name="圖層_1" xmlns="http://www.w3.org/2000/svg" version="1.1" viewBox="0 0 187.1 80">
  <!-- Generator: Adobe Illustrator 29.4.0, SVG Export Plug-In . SVG Version: 2.1.0 Build 152)  -->
  <defs>
    <style>
      .st0 {
        fill: #fff;
      }
    </style>
  </defs>
  <path class="st0" d="M33.2,10.8c-4.5,0-8.7,1-12.5,2.8h24.9c-3.8-1.8-8-2.8-12.5-2.8ZM23.8,16.3h-7.8c-1.2.8-2.3,1.8-3.3,2.8h7.2c1.2-1.1,2.5-2,3.9-2.8ZM38.8,24.7h19.3c-.6-1-1.2-1.9-1.9-2.8h-17.3v2.8ZM17.2,21.9h-7c-.7.9-1.3,1.8-1.9,2.8h7.1c.6-1,1.2-1.9,1.9-2.8ZM38.8,19.1h14.8c-1-1-2.1-1.9-3.3-2.8h-11.5v2.8ZM62.4,40c0-.5,0-.9,0-1.4h-10.1c-.4-1-.8-1.9-1.4-2.8h11.2c-.1-.9-.3-1.9-.5-2.8h-12.6c-.8-1-1.7-1.9-2.7-2.8h14.4c-.3-1-.7-1.9-1.2-2.8H27.5v13.9h11.3v13.9H8.3c.6,1,1.2,1.9,1.9,2.8h17.3v2.8h-14.8c1,1,2.1,1.9,3.3,2.8h11.5v2.8h-6.8c3.8,1.8,8,2.8,12.5,2.8s8.7-1,12.5-2.8h-3.2c1.4-.8,2.7-1.7,3.9-2.8h3.9c1.2-.8,2.3-1.8,3.3-2.8h-4.6c.7-.9,1.3-1.8,1.9-2.8h5.2c.7-.9,1.4-1.8,1.9-2.8h-5.8c.4-.9.7-1.8.9-2.8h6.4c.4-.9.8-1.8,1.2-2.8h-7c.1-.9.2-1.8.2-2.8h0s7.7,0,7.7,0c.2-.9.4-1.8.5-2.8h-8.4c-.1-.9-.3-1.9-.5-2.8h9.2c0-.5,0-.9,0-1.4ZM17.2,49.7H5.6c.3,1,.7,1.9,1.1,2.8h13.1c-1-.8-1.9-1.8-2.7-2.8ZM13.9,44.2H4.2c.1.9.3,1.9.5,2.8h10.5c-.5-.9-1-1.8-1.4-2.8ZM12.3,35.8c0-.9,0-1.9.2-2.8h-7.7c-.2.9-.4,1.8-.5,2.8h8.1ZM13.9,27.5h-7.2c-.4.9-.8,1.8-1.1,2.8h7.4c.2-1,.6-1.9.9-2.8ZM12.5,38.6H4c0,.5,0,.9,0,1.4s0,.9,0,1.4h9.1c-.2-.9-.4-1.8-.5-2.8Z"/>
  <path class="st0" d="M85,58.2c-.6.4-1.5.8-3.3.8-2.8,0-4.7-2.2-4.7-4.8s1.9-4.8,4.7-4.8,2.7.5,3.1.7l-.5,1.1c-.3-.1-1.1-.6-2.5-.6s-3.2,1.5-3.2,3.6,1.5,3.6,3.2,3.6,2.1-.4,2.5-.6l.5,1.1ZM90.1,58.8v-4c0-.6-.2-1.1-1-1.1s-1.3.4-1.5.6v4.5h-1.5v-8.8l1.5-.4v3.8c.3-.2.9-.8,2.2-.8s1.8.8,1.8,1.9v4.4h-1.5ZM118.3,58.8v-4c0-.6-.3-1.1-1-1.1s-1.3.4-1.5.6v4.5h-1.5v-8.8l1.5-.4v3.8c.3-.2.9-.8,2.2-.8s1.8.8,1.8,1.9v4.4h-1.5ZM104.2,58.8v-4c0-.6-.2-1.1-1-1.1s-1.3.4-1.6.6v4.5h-1.5v-5.7l1.4-.4v.6c.3-.2,1-.8,2.2-.8s1.9.7,1.9,1.9v4.4h-1.5ZM109.2,56.5c-.4,0-1.1.1-1.1.6s.6.6,1,.6h1.7c1.3,0,2.3.8,2.1,2.1-.2,1.4-1.7,2.3-3.2,2.3s-3.3-.4-3.3-1.7.7-1.4,1.1-1.6c-.3-.2-.8-.5-.8-1.3s.6-1.4,1.1-1.5c-.3-.2-.7-.6-.7-1.4s.8-2,2.3-2,1,0,1.2.1h2.4v.8h-1.3c.1.1.4.5.4,1,0,1.3-1.2,2-2.4,2h-.6ZM107.8,60.2c0,.7,1.1.9,2,.9s1.9-.6,2-1.2c.1-.7-.4-1-1-1h-2c-.3.2-1,.7-.9,1.3ZM108.6,54.5c0,.6.4,1.1,1.1,1.1s1.1-.5,1.1-1.1-.3-1.1-1.1-1.1-1.1.6-1.1,1.1ZM123.8,52.7h1.4l1.3,4,1.4-4h1.2l-2.4,6.2h-.8l-1.1-3.1-1.2,3.1h-.8l-2.2-6.2h1.4l1.4,4.1.9-2.4-.6-1.7ZM131.4,58.9c-1.2,0-1.9-.7-1.9-1.7s.8-2,2.4-2h1.3v-.6c0-.5-.2-1.1-1.1-1.1s-1.4.3-1.7.4l-.3-.8c.4-.2,1.2-.6,2.5-.6s2.1.7,2.1,1.8v3.5c0,.3.1.8.2,1h-1.5c0-.2-.1-.4-.1-.5-.3.2-.9.7-1.8.7ZM133.2,56h-.9c-.8.1-1.4.4-1.4,1.1s.5.8,1,.8,1-.3,1.3-.5v-1.4ZM94.7,52.7v4c0,.6.2,1.1.9,1.1s1.2-.4,1.5-.6v-4.5h1.5v5.7l-1.4.4v-.6c-.3.2-1,.8-2.2.8s-1.8-.7-1.8-1.9v-4.4h1.5ZM136.8,49.6h7.5v1.2h-2.9v8h-1.6v-8h-2.9v-1.2ZM146.3,57.9c1,0,1.4-.2,1.7-.3l.3.8c-.4.2-.9.5-2.5.5s-3.1-1.2-3.1-3.1,1.3-3.2,3-3.2,2.8,1,2.8,3.3h-4.2c0,1.2.6,2,1.9,2ZM145.7,53.6c-.8,0-1.2.6-1.3,1.4h2.6c0-.9-.5-1.4-1.3-1.4ZM149.8,50l1.5-.4v9.2h-1.5v-8.8ZM156.1,57.9c1,0,1.4-.2,1.7-.3l.3.8c-.4.2-.9.5-2.4.5s-3.1-1.2-3.1-3.1,1.3-3.2,3-3.2,2.8,1,2.8,3.3h-4.2c0,1.2.6,2,1.9,2ZM155.5,53.6c-.8,0-1.2.6-1.3,1.4h2.6c0-.9-.5-1.4-1.3-1.4ZM162.5,52.6c1.2,0,1.7.2,2.1.4l-.3.9c-.3-.1-.7-.3-1.6-.3s-1.8.7-1.8,2.2,1,2.2,1.8,2.2,1.3-.2,1.6-.3l.3.9c-.3.2-.9.4-2.1.4-2,0-3.2-1.3-3.2-3.2s1.6-3.2,3.2-3.2ZM171.7,55.7c0,2-1.4,3.2-3.3,3.2s-3.3-1.2-3.3-3.2,1.5-3.2,3.3-3.2,3.3,1.2,3.3,3.2ZM166.7,55.7c0,1.3.7,2.2,1.7,2.2s1.7-.9,1.7-2.2-.7-2.2-1.7-2.2-1.7.9-1.7,2.2ZM181.8,58.8h-1.5v-4c0-.6-.2-1.1-.9-1.1s-1,.4-1.3.6v4.5h-1.5v-4c0-.6-.2-1.1-.9-1.1s-1,.4-1.3.6v4.5h-1.5v-5.7l1.4-.4v.7c.3-.3,1-.8,2-.8s1.3.3,1.6.8c.3-.3,1-.8,2-.8s1.8.8,1.8,1.8v4.4Z"/>
  <g>
    <path class="st0" d="M164.8,21.8c.3,0,.5.3.7.4.2.2.2.5.1.9-.4,1.8-.8,3.4-1.3,4.7v14.7c0,.3-.1.6-.3.8-.2.2-.5.3-.8.3-.3,0-.5,0-.8-.3-.2-.2-.3-.5-.3-.8v-10.6c-.5.8-.9.9-1.1.9-.2,0-.5,0-.8-.2-.2-.2-.4-.5-.4-.7,0-.2.1-.6.3-.9,1.8-2.5,2.9-5.3,3.3-8.3,0-.4.2-.7.4-.8.2-.1.6-.2.8-.2ZM168.3,35.6h11.9c.5,0,.9.1,1.2.4.3.3.4.6.4,1v4.6c0,.4-.2.8-.5,1.1-.3.3-.7.5-1.1.5h-12c-.4,0-.7-.2-1-.5-.3-.3-.4-.7-.4-1.2v-4.6c0-.4.2-.7.4-1,.3-.3.6-.4,1-.4ZM169.7,37.7c-.3,0-.4,0-.5.1,0,0-.2.2-.2.4s0,2.3,0,2.3c0,.3,0,.4.2.5.1.1.3.2.5.2h9.3c.3,0,.5,0,.5-.2,0,0,.1-.3.1-.5v-2.2c0-.2,0-.4-.1-.5-.1-.1-.3-.2-.5-.2h-9.4ZM168.2,32.1c-.3,0-.6.1-.8.3-.2.2-.3.5-.3.7s0,.5.3.7c.2.2.5.3.8.3h12.4c.3,0,.6-.1.7-.3.2-.2.3-.5.3-.7s0-.6-.3-.7c-.2-.2-.4-.3-.7-.3h-12.4ZM168.2,28.9c-.4,0-.6,0-.8.3-.2.2-.3.5-.3.7s0,.5.3.7c.2.2.4.3.8.3h12.4c.3,0,.6-.1.7-.3.2-.2.3-.4.3-.7s0-.5-.3-.7c-.2-.2-.4-.3-.7-.3h-12.4ZM166.7,25.6c-.4,0-.6.1-.8.3-.2.2-.3.5-.3.7s0,.6.3.7c.2.2.4.3.8.3h15.4c.3,0,.6-.1.7-.3.2-.2.3-.5.3-.7s0-.5-.3-.7c-.2-.2-.4-.3-.7-.3h-15.4ZM168.2,22.3c-.3,0-.6.1-.8.3-.2.2-.3.4-.3.7s.1.6.3.7c.2.2.4.3.8.3h12.4c.3,0,.6-.1.7-.3.2-.2.3-.4.3-.7s0-.6-.3-.7c-.2-.2-.4-.3-.7-.3h-12.4Z"/>
    <path class="st0" d="M127.6,24c0,.2-.1.5-.3.7-.2.2-.4.3-.7.3h-4.9c0,.4,0,.7-.3.9-.2.2-.5.3-.8.3s-.6-.1-.8-.3c-.2-.2-.3-.5-.3-.8h0c0,0-6.1,0-6.1,0h0c0,.4,0,.7-.3.9-.2.2-.5.3-.8.3s-.6-.1-.8-.3c-.2-.2-.3-.5-.3-.8h0c0,0-4.9,0-4.9,0-.3,0-.6-.1-.7-.3-.2-.2-.3-.5-.3-.7s.1-.5.3-.7c.2-.2.4-.3.7-.3h4.9v-.5c0-.3,0-.6.3-.8.2-.2.5-.3.8-.3s.6.1.8.3c.2.2.3.5.3.8v.5h6.1v-.5c0-.3,0-.6.3-.8.2-.2.5-.3.8-.3s.6.1.8.3c.2.2.3.5.3.8v.5h4.9c.3,0,.5.1.7.3.2.2.3.5.3.7ZM112.1,32.7v2h3.3v-2h-3.3ZM117.6,28.7v2.1h3.3v-2.1h-3.3ZM121,33v-.3h-3.3v2h8.4c.3,0,.5,0,.7.3.2.2.3.5.3.7s0,.5-.3.7c-.2.2-.4.3-.7.3h-8.4v1.6h9c.3,0,.5,0,.7.3.2.2.3.5.3.7s-.1.5-.3.7c-.2.2-.4.3-.7.3h-9v2.2c0,.3,0,.6-.3.8-.2.2-.5.3-.8.3s-.6-.1-.8-.3c-.2-.2-.3-.5-.3-.8v-2.2h-9c-.3,0-.5,0-.7-.3-.2-.2-.3-.5-.3-.7s0-.5.3-.7c.2-.2.4-.3.7-.3h9v-1.6h-8.4c-.3,0-.6,0-.7-.3-.2-.2-.2-.5-.2-.7s0-.5.3-.7c.2-.2.4-.3.7-.3h2.9v-2h-4.2c-.3,0-.5,0-.7-.3-.2-.2-.3-.5-.3-.7s.1-.5.3-.7c.2-.2.4-.3.7-.3h4.2v-.2c0-.3,0-.6.3-.8.2-.2.5-.3.8-.3s.6.1.8.3c.2.2.3.5.3.8v.2h3.3v-2.1h-8.4c-.3,0-.6-.1-.7-.3-.2-.2-.3-.5-.3-.7s.1-.5.3-.7c.2-.2.4-.3.7-.3h19c.3,0,.5,0,.7.3.2.2.3.5.3.7s-.1.5-.3.7c-.2.2-.4.3-.7.3h-2.9v2.1h4.2c.3,0,.5,0,.7.3.2.2.3.5.3.7s0,.5-.3.7c-.2.2-.4.3-.7.3h-4.2v.3c0,.3-.1.6-.3.8-.2.2-.5.3-.8.3s-.6-.1-.8-.3c-.2-.2-.3-.5-.3-.8h0Z"/>
    <path class="st0" d="M87.3,21.7c-.2.2-.3.5-.3.9v1.7h-7.9c-.6,0-1.1.2-1.5.6-.4.4-.6.9-.6,1.5v11.3c0,.5.2,1,.6,1.4.4.4.9.6,1.5.6h7.9v2.7c0,.4.1.8.3.9.2.2.4.3.8.3s.7-.2.8-.3c.2-.2.3-.5.3-.9v-2.7h7.9c.6,0,1.2-.3,1.5-.6.3-.3.6-.9.6-1.5v-11.2c0-.6-.2-1.1-.5-1.5-.4-.4-.9-.6-1.5-.6h-7.9v-1.7c0-.4-.1-.7-.3-.9-.2-.2-.6-.3-.9-.3s-.7.1-.9.3ZM79.4,37.2c-.1-.1-.2-.3-.2-.5v-9.5c0-.2,0-.3.2-.5.2-.2.3-.2.5-.2h7v10.9h-7c-.2,0-.4,0-.5-.2ZM96.3,26.5c.2,0,.4,0,.5.2.1.1.2.3.2.5v9.5c0,.2-.1.4-.2.5,0,0-.2.2-.5.2h-7v-10.9h7Z"/>
    <path class="st0" d="M140.5,27.8c.2,0,.4,0,.5.2.1.1.2.3.2.5s0,.4-.2.5c-.1.1-.3.2-.5.2h-3.8c-.2,0-.4,0-.6-.2-.1-.1-.2-.3-.2-.5s0-.4.2-.5c.1-.1.3-.2.6-.2h3.8ZM141.8,30.2c.2,0,.4,0,.5.2.1.1.2.3.2.5s0,.4-.2.5c-.1.2-.3.2-.5.2h-3.8c-.2,0-.4,0-.6-.2-.1-.1-.2-.3-.2-.5s0-.4.2-.5c.1-.1.3-.2.6-.2h3.8ZM150.7,27.8c.2,0,.4,0,.5.2.1.1.2.3.2.5s0,.4-.2.5c-.1.1-.3.2-.5.2h-3.8c-.2,0-.4,0-.6-.2-.1-.1-.2-.3-.2-.5s0-.4.2-.5c.1-.1.3-.2.6-.2h3.8ZM152,30.2c.2,0,.4,0,.5.2.1.1.2.3.2.5s0,.4-.2.5c-.1.2-.3.2-.5.2h-3.8c-.2,0-.4,0-.6-.2-.1-.1-.2-.3-.2-.5s0-.4.2-.5c.1-.1.3-.2.6-.2h3.8ZM136.8,34.7c0-.2,0-.3.1-.4,0,0,.2-.1.4-.1h5.9v1.3h-6.5s0-.7,0-.8ZM143.2,37.2v1.3h-5.9c-.2,0-.3,0-.4-.1,0,0-.1-.2-.1-.4v-.7h6.5ZM151.3,34.2c.2,0,.3,0,.4.2,0,0,.1.2.1.4v.7h-6.5v-1.3h5.9ZM151.9,37.2v.7c0,.2,0,.3-.1.4,0,0-.2.1-.4.1h-5.9v-1.3h6.5ZM153.9,41.5s-6.9,0-7.5,0-.6,0-.8-.2c-.2-.2-.2-.6-.2-1.1h7.1c.4,0,.7-.1,1-.4.3-.3.5-.6.5-1v-4.9c0-.4-.1-.7-.4-.9-.3-.3-.7-.4-1.1-.4h-16.5c-.4,0-.7.1-.9.4-.2.3-.4.6-.3.9v4.9c0,.4.1.7.4,1,.2.3.5.4.9.4h7.3s0,.8,0,.8c0,.9.5,1.5.9,1.8.4.4,1.1.5,1.5.5h8.2c.5,0,.9-.4.9-.9s-.4-.9-.9-.9ZM153.2,27c.1,0,.3,0,.3.1,0,0,.1.2.1.4v3.2c0,.3.2.7.3.8.2.2.5.3.7.3s.6-.2.7-.3c.2-.2.3-.5.3-.8v-3.8c0-.4-.2-.9-.5-1.2-.3-.3-.8-.5-1.2-.5h-8.8v-1.1h7.5c.3,0,.5-.1.6-.3.1-.1.2-.4.2-.6s0-.5-.2-.7c-.2-.1-.4-.2-.6-.2h-17c-.3,0-.5,0-.7.2-.2.2-.3.4-.3.6s.1.5.3.7c.1.1.4.3.7.3h7.5v1.1h-8.8c-.4,0-.9.2-1.2.5-.3.3-.5.8-.5,1.2v3.8c0,.3.1.6.3.8.1.1.5.3.7.3s.5,0,.7-.3c.2-.2.3-.5.3-.8v-3.2c0-.1,0-.3.1-.4,0,0,.2-.1.3-.1h7.9v3.9c0,.4.1.7.3.8.2.2.5.3.7.3s.6-.1.7-.3c.2-.2.3-.5.3-.8v-3.9h7.9Z"/>
  </g>
</svg>