<?xml version="1.0" encoding="UTF-8"?>
<svg id="_圖層_1" data-name="圖層_1" xmlns="http://www.w3.org/2000/svg" xmlns:xlink="http://www.w3.org/1999/xlink" version="1.1" viewBox="0 0 437 77">
  <!-- Generator: Adobe Illustrator 29.4.0, SVG Export Plug-In . SVG Version: 2.1.0 Build 152)  -->
  <defs>
    <style>
      .st0 {
        fill: none;
      }

      .st1 {
        fill: url(#_未命名漸層);
      }

      .st2 {
        fill: #ea9d17;
      }

      .st3 {
        fill: #eba615;
      }

      .st4 {
        fill: #231815;
      }

      .st5 {
        fill: #fff;
      }

      .st6 {
        fill: url(#_未命名漸層_2);
      }

      .st7 {
        fill: url(#_未命名漸層_3);
      }

      .st8 {
        fill: url(#_未命名漸層_4);
      }

      .st9 {
        fill: #1e95d4;
      }

      .st10 {
        clip-path: url(#clippath);
      }
    </style>
    <clipPath id="clippath">
      <rect class="st0" y="0" width="436.5" height="76.4"/>
    </clipPath>
    <linearGradient id="_未命名漸層" data-name="未命名漸層" x1="179.1" y1="38.8" x2="246.6" y2="24.7" gradientTransform="translate(0 78.6) scale(1 -1)" gradientUnits="userSpaceOnUse">
      <stop offset="0" stop-color="#054391"/>
      <stop offset="1" stop-color="#339cd1"/>
    </linearGradient>
    <linearGradient id="_未命名漸層_2" data-name="未命名漸層 2" x1="218.2" y1="58.1" x2="250.9" y2="58.1" gradientTransform="translate(0 78.6) scale(1 -1)" gradientUnits="userSpaceOnUse">
      <stop offset="0" stop-color="#169243"/>
      <stop offset="1" stop-color="#c6d11f"/>
    </linearGradient>
    <linearGradient id="_未命名漸層_3" data-name="未命名漸層 3" x1="217.4" y1="59.7" x2="282.6" y2="59.7" gradientTransform="translate(0 78.6) scale(1 -1)" gradientUnits="userSpaceOnUse">
      <stop offset="0" stop-color="#169243"/>
      <stop offset="1" stop-color="#bbd593"/>
    </linearGradient>
    <linearGradient id="_未命名漸層_4" data-name="未命名漸層 4" x1="217.9" y1="55" x2="291" y2="55" gradientTransform="translate(0 78.6) scale(1 -1)" gradientUnits="userSpaceOnUse">
      <stop offset="0" stop-color="#1074b9"/>
      <stop offset="1" stop-color="#9ebedf"/>
    </linearGradient>
  </defs>
  <g class="st10">
    <g>
      <path d="M318.9,13h-4.5L321.8,0h-8.1l-7.4,13.1h-4.7l-1.8,3.1h4.7l-13.4,23.6h8.1l13.4-23.6h3.7l-23.7,41.6h8.1l25.5-44.7h-7.3Z"/>
      <path d="M346.1,13h-17.6l-15.2,26.7h19l15.2-26.7h-1.4ZM325.9,36.6h-2.8l11.7-20.5h2.8l-11.7,20.5Z"/>
      <path d="M419,23.9h9.2l8.3-14.6h-16.8l-1.2,2-6,10.5-.5.8h-1.3l.5-.8,6-10.5,1.2-2h-16.8l-8.3,14.6h12l-2.1,1.5h-10.7l-1.8,3.1h8l-13.5,9.4h2.7l-5.5,9.7-9.4-10.7h8.5l10.8-18.9h-11.1l.9-1.6h11.1l1.8-3.1h-11.1l2.2-3.9h-8.1l-2.2,3.9h-11l-1.8,3.1h11l-.9,1.6h-11l-10.8,18.9h11l-1.1,2h-6.2l-8.7,6.8h8.6l4.4-3.5-3.6,6.4h-12.5l10.2-17.8h-4.5l7-12.3h-8.1l-7,12.3h4.5l-11.9,20.9h40.1l1.7-3.1,5.7,6.5h8.3l-3-3.5h10.7l1.2-2.1,6-10.5,1.2-2h-7.7l11.3-7.9,6.8,7.9h-9.1l-1.2,2-6,10.5-1.2,2.1h16.8l7.1-12.6h3.6l-9.2-10.7h9.1l1.8-3.1h-13l2.1-1.5h2.6,0ZM426.1,11.4h1.6l-6,10.5h-1.6l6-10.5ZM379.5,21.1h3l-7.3,12.8h-3l7.3-12.8ZM361.1,33.8l7.3-12.8h2.9l-7.3,12.8h-2.9ZM363.7,48.6l4.5-7.8,6.9,7.8h-11.4ZM390.4,49.7h-1.6l6-10.5h1.6l-6,10.5ZM403.7,21.9h-1.6l6-10.5h1.6l-6,10.5ZM408.5,49.7h-1.6l6-10.5h1.6l-6,10.5Z"/>
      <path d="M305.6,59.8l-.6,1.4h.7l-.6,1.4h-.7l-2.1,4.7c-.2.6-.4.9-.3,1,0,0,.3,0,.7,0l-.6,1.4h-1.1c-.6,0-1,0-1.3,0-.2,0-.4-.2-.5-.4s-.1-.4-.1-.6c0-.2.3-.8.7-1.7l2-4.4h-.6l.6-1.4h.6l.6-1.4h2.7,0Z"/>
      <path d="M308.8,64.4h-2.5l.3-.6c.3-.7.6-1.2.9-1.6.3-.4.8-.7,1.4-1,.6-.3,1.3-.4,2-.4s1.5.2,1.9.5c.3.3.4.7.3,1.2-.1.5-.5,1.4-1.1,2.9l-1.9,4.4h-2.6l.3-.8c-.3.3-.6.6-1,.7s-.7.2-1,.2-.9-.1-1.1-.4c-.3-.3-.2-.8.2-1.7l.3-.7c.3-.7.6-1.1.9-1.3s1-.5,1.9-.8c1-.3,1.6-.6,1.7-.7.1-.1.2-.4.4-.7.2-.5.3-.8.3-.9,0-.1,0-.2-.2-.2s-.3,0-.4.2c-.1.1-.2.4-.5.9l-.4.9h0ZM309.1,65.6c-.6.3-.9.6-1.1.8s-.3.5-.5.9c-.2.5-.3.7-.3.9s0,.2.3.2.3,0,.4-.2c0,0,.2-.4.4-.8l.8-1.8h0Z"/>
      <path d="M318.9,61l-.6,1.1c.8-.8,1.5-1.3,2.3-1.3l-1.3,3.1c-.5,0-.9,0-1.2.2-.3.1-.5.3-.7.5-.2.2-.4.8-.8,1.6l-1.5,3.5h-2.7l3.8-8.7h2.7Z"/>
      <path d="M326.2,59.8l-.6,1.4h.7l-.6,1.4h-.7l-2.1,4.7c-.2.6-.4.9-.3,1,0,0,.3,0,.7,0l-.6,1.4h-1.1c-.6,0-1,0-1.3,0-.2,0-.4-.2-.5-.4-.1-.2-.2-.4-.1-.6,0-.2.3-.8.7-1.7l1.9-4.4h-.6l.6-1.4h.6l.6-1.4h2.7,0Z"/>
      <path d="M334.6,61l-3.8,8.7h-2.8l.4-.7c-.3.3-.6.5-1,.7-.3.2-.7.2-1,.2s-.7,0-.9-.2-.3-.3-.4-.6c0-.2,0-.5,0-.7,0-.2.3-.8.6-1.5l2.6-5.9h2.7l-2.6,5.9c-.3.7-.5,1.1-.5,1.2,0,.1,0,.2.3.2s.4,0,.4-.2c0-.1.3-.6.6-1.3l2.6-5.9h2.7Z"/>
      <path d="M339.8,61l-.4.8c.4-.3.8-.5,1.1-.7.4-.2.7-.2,1.1-.2s.7.1.9.3c.2.2.3.5.2.8,0,.3-.2.8-.5,1.5l-1.6,3.7c-.3.8-.6,1.4-.9,1.7-.2.3-.6.6-.9.8-.4.2-.8.3-1.2.3s-.6,0-.8-.2-.4-.4-.5-.7l-.9,2h-2.7l4.4-10h2.8ZM339.4,63.5c.2-.5.4-.9.4-1,0-.1,0-.2-.3-.2s-.3,0-.4.2c-.1.1-.3.5-.5,1l-1.6,3.6c-.2.5-.4.9-.4,1s0,.2.3.2.3,0,.4-.2c.1-.1.2-.4.5-.9l1.6-3.7h0Z"/>
      <path d="M291.3,62.7h6.9c.1,0,3.8-3,3.8-3h-8.9s-1.8,0-3.7,1.2c-1.6,1.1-2.5,2.7-2.7,4.4-.3,2.7,2.5,2.7,2.5,2.7h4.1s1.3,0,.4,1.5c-.5.9-1.6,1-2.1,1h-6.2c-.1,0-2.7,3-2.7,3h8.4s.8,0,1.2-.1c.6-.2,1.4-.4,2.5-1.3,1.6-1.2,2.8-2.8,2.8-4.5.1-2.8-2.1-2.8-2.1-2.8h-4.9c-.3,0-.8-.2-.3-1.4.3-.6.8-.7,1-.7h0Z"/>
      <path d="M366.9,64.2h-2.6l.4-1c.2-.3.2-.6.2-.7s0-.2-.2-.2-.3,0-.4.2-.2.4-.4.7l-1.8,4.1c-.1.3-.2.5-.2.7,0,.2.1.2.2.2s.3,0,.5-.2c.1-.2.3-.5.5-.9l.5-1h2.4c-.3.7-.6,1.2-.8,1.6-.2.4-.5.7-.9,1.1-.4.4-.9.6-1.4.8-.5.2-1,.3-1.6.3s-1.3-.1-1.6-.4c-.3-.3-.5-.6-.5-1.1,0-.5.2-1.1.6-2l1.1-2.5c.3-.7.6-1.3,1-1.7.3-.4.8-.7,1.4-1,.6-.3,1.3-.4,2-.4s1.2.1,1.6.4.5.7.5,1.1-.2,1.1-.6,1.9h0Z"/>
      <path d="M374.7,64.2h-2.5l.4-1c.2-.3.2-.6.2-.7s0-.2-.2-.2-.3,0-.4.2-.2.4-.4.7l-1.8,4.1c-.1.3-.2.5-.2.7,0,.2.1.2.2.2s.3,0,.5-.2c.1-.2.3-.5.5-.9l.5-1h2.4c-.3.7-.6,1.2-.8,1.6-.2.4-.5.7-.9,1.1-.4.4-.9.6-1.4.8-.5.2-1,.3-1.6.3s-1.3-.1-1.6-.4c-.3-.3-.5-.6-.5-1.1,0-.5.2-1.1.6-2l1.1-2.5c.3-.7.6-1.3,1-1.7.3-.4.8-.7,1.4-1,.6-.3,1.3-.4,2-.4s1.2.1,1.6.4c.4.3.5.7.5,1.1s-.2,1.1-.6,1.9h0Z"/>
      <path d="M382.1,65.4h-3.5l-.8,1.9c-.2.4-.3.6-.2.8,0,.1,0,.2.3.2s.4,0,.5-.2c.1-.2.3-.4.5-.9l.5-1.2h2.6l-.3.7c-.2.5-.5.9-.6,1.2-.2.3-.5.6-.9.9s-.8.6-1.3.7c-.5.2-1,.2-1.6.2s-1,0-1.4-.2c-.4-.2-.6-.4-.7-.7-.1-.3-.1-.6,0-.9,0-.3.2-.8.5-1.5l1.1-2.5c.3-.8.7-1.4,1.1-1.8.4-.4.9-.8,1.5-1,.6-.2,1.2-.3,1.8-.3s1.3.1,1.7.4.6.7.5,1.1c0,.5-.2,1.1-.6,2l-.5,1.2h0ZM380,64l.3-.6c.2-.4.3-.7.3-.9,0-.1,0-.2-.2-.2s-.3,0-.4.2c0,.1-.2.4-.5.9l-.3.6h.8,0Z"/>
      <path d="M389.7,59l-4.7,10.7h-2.8l4.7-10.7h2.8Z"/>
      <path d="M394.9,65.4h-3.5l-.8,1.9c-.2.4-.3.6-.2.8,0,.1,0,.2.3.2s.4,0,.5-.2c.1-.2.3-.4.5-.9l.5-1.2h2.6l-.3.7c-.2.5-.5.9-.6,1.2-.2.3-.5.6-.9.9s-.8.6-1.3.7c-.5.2-1,.2-1.6.2s-1,0-1.4-.2c-.4-.2-.6-.4-.7-.7-.1-.3-.1-.6,0-.9,0-.3.2-.8.5-1.5l1.1-2.5c.3-.8.7-1.4,1.1-1.8.4-.4.9-.8,1.5-1s1.2-.3,1.8-.3,1.3.1,1.7.4.6.7.5,1.1c0,.5-.2,1.1-.6,2l-.5,1.2h0ZM392.9,64l.3-.6c.2-.4.3-.7.3-.9,0-.1,0-.2-.2-.2s-.3,0-.4.2c0,.1-.2.4-.5.9l-.3.6h.8Z"/>
      <path d="M401.5,60.9l-.6,1.2c.8-.8,1.5-1.3,2.3-1.3l-1.4,3.1c-.5,0-.9,0-1.2.2-.3.1-.5.3-.7.6-.2.2-.4.8-.8,1.6l-1.5,3.5h-2.7l3.8-8.7h2.7Z"/>
      <path d="M405.7,64.3h-2.5l.3-.6c.3-.7.6-1.2.9-1.6.3-.4.8-.7,1.4-1,.6-.3,1.3-.4,2-.4s1.5.2,1.9.5c.3.3.4.7.3,1.2-.1.5-.5,1.4-1.1,2.9l-1.9,4.4h-2.6l.3-.8c-.3.3-.6.6-1,.7-.3.2-.7.2-1,.2s-.8-.1-1.1-.4c-.3-.3-.2-.8.2-1.7l.3-.7c.3-.6.6-1.1.9-1.3.3-.2,1-.5,1.9-.8,1-.3,1.6-.6,1.7-.7.1-.1.2-.4.4-.7.2-.5.3-.8.3-.9,0-.1,0-.2-.2-.2s-.3,0-.4.2-.2.4-.5.9l-.4.9h0ZM406,65.5c-.6.3-.9.6-1.1.8-.2.2-.3.5-.5.9-.2.4-.3.7-.3.9s0,.2.3.2.3,0,.4-.2c.1,0,.2-.4.4-.8l.8-1.8h0Z"/>
      <path d="M416.1,59.7l-.6,1.4h.7l-.6,1.4h-.7l-2.1,4.7c-.2.6-.4.9-.3,1,0,0,.3,0,.7,0l-.6,1.4h-1.1c-.6,0-1,0-1.3,0-.2,0-.4-.2-.5-.3s-.1-.4-.1-.6c0-.2.3-.8.7-1.7l2-4.4h-.6l.6-1.4h.6l.6-1.4h2.7,0Z"/>
      <path d="M422.7,63.9l-.9,2.1c-.4.8-.6,1.4-.9,1.7s-.6.7-1,1c-.4.3-.8.6-1.3.7-.5.1-1,.2-1.5.2s-1.1,0-1.4-.2c-.4-.1-.6-.3-.7-.6-.1-.3-.1-.6,0-.9,0-.4.3-.9.6-1.7l1-2.2c.4-.8.7-1.5,1.1-1.9.4-.5.9-.8,1.5-1.1.6-.3,1.2-.4,2-.4s1.1,0,1.4.3c.4.2.6.4.7.7.1.3.1.6.1.9,0,.3-.2.8-.5,1.4h0ZM420.2,63.3c.2-.5.3-.7.3-.8s0-.2-.2-.2-.3,0-.4.2c-.1.1-.3.4-.5.8l-1.7,3.9c-.2.4-.3.7-.3.8s0,.2.2.2.3,0,.4-.2.2-.4.4-.7l1.8-4h0Z"/>
      <path d="M428.6,60.9l-.6,1.2c.8-.8,1.5-1.3,2.3-1.3l-1.3,3.1c-.5,0-.9,0-1.2.2-.3.1-.5.3-.7.6-.2.2-.4.8-.8,1.6l-1.5,3.5h-2.7l3.8-8.7h2.7Z"/>
      <path d="M354.9,60.5l-13.1,15.8h4l4.7-5.7h4.4v2.3h3.1v-16.2l-3.1,3.7h0ZM354.9,68h-2.2l2.2-2.6v2.6Z"/>
      <path class="st4" d="M11.9,68.8c-.9.6-2.3,1.1-4.8,1.1C2.9,69.9,0,66.7,0,62.8s2.9-7.2,7.1-7.2,4,.7,4.6,1l-.7,1.6c-.5-.2-1.6-.8-3.8-.8s-4.7,2.2-4.7,5.3,2.3,5.3,4.8,5.3,3.1-.5,3.8-.9l.8,1.6h0ZM19.6,69.7v-6c0-.9-.4-1.6-1.5-1.6s-1.9.6-2.3.9v6.7h-2.2v-13.2l2.2-.6v5.6c.4-.3,1.3-1.2,3.3-1.2s2.7,1.1,2.7,2.8v6.5h-2.2ZM61.5,69.7v-6c0-.9-.4-1.6-1.5-1.6s-1.9.6-2.3.9v6.7h-2.2v-13.2l2.2-.6v5.6c.4-.3,1.3-1.2,3.3-1.2s2.7,1.1,2.7,2.8v6.5h-2.2ZM40.5,69.7v-6c0-.9-.4-1.6-1.5-1.6s-1.9.6-2.3.9v6.7h-2.2v-8.5l2.1-.6v.9c.5-.3,1.5-1.2,3.3-1.2s2.8,1.1,2.8,2.8v6.5h-2.2ZM48,66.2c-.6,0-1.6.2-1.6.9s.9.9,1.6.9h2.6c2,0,3.4,1.2,3.2,3.2-.2,2-2.6,3.5-4.7,3.5s-4.9-.6-4.9-2.6,1.1-2.1,1.6-2.4c-.4-.2-1.1-.8-1.1-2s.8-2,1.6-2.3c-.5-.3-1.1-.9-1.1-2s1.1-2.9,3.4-2.9,1.5.1,1.8.2h3.5v1.2h-2c.2.2.6.7.6,1.5,0,1.9-1.8,2.9-3.6,2.9h-.9ZM45.9,71.8c0,1,1.6,1.4,2.9,1.4s2.8-.9,2.9-1.8c.2-1-.6-1.5-1.5-1.5h-3c-.5.3-1.4,1-1.4,1.9h0ZM47.1,63.3c0,.9.6,1.6,1.7,1.6s1.7-.7,1.7-1.6-.5-1.6-1.7-1.6-1.7.8-1.7,1.6ZM69.7,60.6h2l2,6,2.1-6h1.9l-3.5,9.2h-1.2l-1.6-4.7-1.8,4.7h-1.2l-3.3-9.2h2.1l2,6.2,1.4-3.6-.9-2.6h0ZM81.1,69.9c-1.7,0-2.8-1-2.8-2.5s1.2-2.9,3.5-3.1h1.9v-.9c0-.8-.3-1.6-1.7-1.6s-2.1.4-2.6.6l-.5-1.2c.6-.3,1.8-.9,3.7-.9s3.2,1.1,3.2,2.7v5.2c0,.5.2,1.2.3,1.4h-2.3c-.1-.3-.2-.6-.2-.8-.5.3-1.4,1-2.7,1h0ZM83.7,65.5h-1.3c-1.2.2-2.1.6-2.1,1.6s.7,1.2,1.5,1.2,1.5-.5,1.9-.8v-2.1h0ZM26.3,60.6v6c0,.9.3,1.6,1.4,1.6s1.8-.6,2.2-.9v-6.7h2.2v8.5l-2.1.6v-1c-.5.3-1.5,1.2-3.2,1.2s-2.6-1.1-2.6-2.8v-6.5h2.2,0ZM89.1,55.9h11.2v1.8h-4.4v12h-2.4v-12h-4.4v-1.8ZM103.3,68.4c1.4,0,2.1-.3,2.5-.5l.5,1.2c-.6.2-1.4.8-3.7.8s-4.6-1.8-4.6-4.7,1.9-4.8,4.4-4.8,4.2,1.5,4.2,5h-6.2c0,1.9,1,3,2.9,3h0ZM102.4,61.9c-1.2,0-1.8.9-1.9,2.1h3.8c-.1-1.4-.8-2.1-1.9-2.1ZM108.5,56.5l2.2-.6v13.8h-2.2v-13.2ZM117.9,68.4c1.4,0,2.1-.3,2.5-.5l.5,1.2c-.5.2-1.4.8-3.6.8s-4.6-1.8-4.6-4.7,1.9-4.8,4.4-4.8,4.2,1.5,4.2,5h-6.2c0,1.9,1,3,2.9,3h0ZM117,61.9c-1.2,0-1.8.9-1.9,2.1h3.8c-.1-1.4-.8-2.1-1.9-2.1ZM127.4,60.4c1.8,0,2.6.4,3.1.6l-.5,1.4c-.5-.2-1.1-.4-2.3-.4s-2.8,1.1-2.8,3.2,1.5,3.2,2.8,3.2,1.9-.2,2.4-.4l.5,1.3c-.5.3-1.3.6-3.2.6-2.9,0-4.8-1.9-4.8-4.8s2.3-4.7,4.8-4.7h0ZM141.2,65.1c0,2.9-2.2,4.8-5,4.8s-4.9-1.8-4.9-4.8,2.2-4.8,4.9-4.8,5,1.8,5,4.8ZM133.7,65.1c0,1.9,1,3.3,2.6,3.3s2.5-1.4,2.5-3.3-1.1-3.3-2.5-3.3-2.6,1.4-2.6,3.3ZM156.2,69.7h-2.2v-6c0-.9-.4-1.6-1.4-1.6s-1.5.6-1.9.9v6.7h-2.2v-6c0-.9-.3-1.6-1.3-1.6s-1.5.6-1.9.9v6.7h-2.2v-8.5l2.1-.6v1c.5-.4,1.5-1.2,2.9-1.2s1.9.4,2.4,1.2c.5-.4,1.5-1.2,3.1-1.2s2.7,1.2,2.7,2.8v6.5h0Z"/>
      <path class="st4" d="M130.9,14.5c.5.1.8.4,1,.6.2.3.3.8.2,1.4-.6,2.7-1.2,5.1-1.9,7v21.9c0,.5-.2.9-.5,1.2-.3.3-.7.4-1.1.5-.4,0-.8-.2-1.1-.5-.3-.3-.4-.7-.4-1.3v-15.7c-.8,1.1-1.3,1.3-1.7,1.3-.3,0-.8,0-1.1-.3-.3-.3-.6-.7-.6-1.1,0-.4.2-.9.5-1.3,2.6-3.8,4.3-7.9,4.9-12.3,0-.5.4-1,.7-1.2.3-.2.8-.4,1.3-.3h0ZM136.1,35.1h17.8c.7,0,1.3.2,1.8.6.4.5.6.8.6,1.4v6.8c0,.6-.3,1.2-.8,1.7-.5.5-1,.8-1.6.8h-17.8c-.6,0-1.1-.3-1.5-.7-.4-.5-.6-1.1-.6-1.7v-6.8c0-.6.2-1.1.6-1.5.4-.4.9-.6,1.5-.6ZM138.2,38.2c-.5,0-.6.1-.7.2-.1.1-.2.3-.2.7v3.4c0,.4.1.6.2.7.2.2.4.3.8.3h13.9c.4,0,.7-.1.8-.2.1-.1.2-.4.2-.7v-3.3c0-.4,0-.6-.2-.7-.2-.2-.4-.3-.8-.3h-14ZM136,30c-.5,0-.9.2-1.1.5-.3.3-.4.7-.4,1.1s.1.8.4,1.1c.3.3.7.5,1.1.5h18.5c.5,0,.9-.2,1.1-.5.3-.3.4-.7.4-1.1s-.1-.8-.4-1.1c-.2-.2-.6-.4-1.1-.4h-18.5ZM136,25.1c-.5,0-.8.1-1.1.4-.3.3-.4.7-.4,1.1s.1.8.4,1.1c.3.3.6.4,1.1.4h18.5c.5,0,.8-.2,1.1-.5.3-.3.4-.7.4-1.1s-.1-.8-.4-1.1c-.3-.3-.6-.5-1.1-.5h-18.5ZM133.7,20.2c-.6,0-.9.2-1.1.4-.3.3-.4.7-.4,1.1s.2.8.4,1.1c.3.3.6.4,1.1.4h23c.5,0,.9-.2,1.1-.4.3-.3.4-.7.4-1.1s-.1-.8-.4-1.1c-.3-.2-.6-.4-1.1-.4h-23ZM136,15.3c-.5,0-.9.2-1.1.4-.3.3-.4.6-.4,1.1s.2.8.4,1.1c.3.2.6.4,1.1.4h18.5c.5,0,.9-.2,1.1-.4.3-.3.4-.6.4-1.1s-.1-.8-.4-1.1c-.2-.2-.6-.4-1.1-.4h-18.5Z"/>
      <path class="st4" d="M75.5,17.8c0,.4-.2.8-.4,1-.3.3-.6.5-1.1.5h-7.3c0,.6-.1,1-.5,1.4-.3.3-.7.5-1.1.5s-.8-.1-1.2-.5c-.3-.3-.4-.7-.4-1.2h0c0-.1-9.1-.1-9.1-.1h0c0,.6-.1,1-.5,1.4-.3.3-.7.5-1.1.5s-.9-.2-1.2-.5c-.3-.3-.4-.7-.4-1.2h0c0-.1-7.3-.1-7.3-.1-.5,0-.8-.2-1.1-.4-.3-.3-.4-.7-.4-1.1s.2-.8.4-1c.2-.3.6-.4,1.1-.4h7.3v-.7c0-.5.1-.9.5-1.2.3-.3.7-.5,1.2-.5s.8.2,1.1.5c.3.3.5.7.5,1.2v.7h9.1v-.7c0-.5.1-.9.4-1.2.3-.3.7-.5,1.2-.5s.9.2,1.1.5c.3.3.5.8.5,1.2v.7h7.3c.4,0,.8.2,1.1.4.2.3.4.7.4,1ZM52.4,30.8v3h5v-3h-5ZM60.6,24.8v3.1h5v-3.1h-5ZM65.6,31.3v-.4h-5v3h12.5c.4,0,.8.1,1.1.4.3.3.4.8.4,1.1s-.1.8-.4,1c-.3.3-.6.4-1.1.4h-12.5v2.4h13.5c.4,0,.8.1,1,.4s.4.7.4,1.1-.2.8-.4,1.1c-.2.3-.6.4-1.1.4h-13.5v3.2c0,.5-.1.9-.5,1.2-.3.3-.7.5-1.2.5s-.8-.2-1.1-.5c-.3-.3-.4-.7-.4-1.2v-3.2h-13.5c-.5,0-.8-.1-1.1-.4-.3-.3-.4-.8-.4-1.1s.1-.8.4-1.1.6-.4,1.1-.4h13.5v-2.4h-12.6c-.5,0-.8-.1-1.1-.4-.3-.3-.4-.8-.4-1s0-.8.4-1.1.6-.4,1.1-.4h4.4v-3h-6.2c-.4,0-.8-.1-1.1-.4-.3-.3-.4-.7-.4-1.1s.2-.8.4-1c.2-.3.6-.4,1.1-.4h6.2v-.3c0-.5.1-.9.4-1.2.3-.3.7-.5,1.2-.5s.9.2,1.1.5c.3.3.5.7.5,1.2v.3h5v-3.1h-12.5c-.5,0-.8-.2-1.1-.4-.3-.3-.4-.8-.4-1.1s.1-.8.4-1c.2-.2.6-.4,1.1-.4h28.3c.4,0,.8.1,1,.4.3.3.4.7.4,1.1s-.2.7-.4,1c-.3.3-.6.5-1.1.5h-4.4v3.1h6.2c.5,0,.8.1,1,.4.3.3.4.7.4,1.1s-.1.7-.4,1c-.3.3-.6.5-1.1.5h-6.2v.4c0,.5-.2.8-.5,1.1-.3.3-.7.5-1.2.5s-.8-.2-1.2-.5c-.3-.3-.4-.7-.4-1.1h0Z"/>
      <path class="st4" d="M15.3,14.4c-.3.3-.4.8-.4,1.3v2.5H3.1c-.9,0-1.6.3-2.2.9-.6.6-.9,1.4-.9,2.2v16.9c0,.8.3,1.5.9,2.1.6.6,1.4.9,2.2.9h11.7v4.1c0,.6.2,1.1.5,1.4.2.2.7.5,1.3.5s1-.3,1.2-.5c.3-.3.5-.8.5-1.4v-4.1h11.8c.9,0,1.7-.5,2.2-.9.5-.5.9-1.4.9-2.2v-16.7c0-.8-.3-1.6-.8-2.2-.6-.7-1.4-1-2.3-1h-11.8v-2.5c0-.5-.2-1-.5-1.3-.3-.3-.8-.5-1.3-.5s-1,.2-1.3.5h0ZM3.6,37.4c-.2-.2-.3-.4-.3-.7v-14.2c0-.3.1-.5.3-.8.2-.2.5-.3.7-.3h10.5v16.2H4.4c-.3,0-.6,0-.8-.3h0ZM28.8,21.5c.3,0,.6.1.8.3s.3.4.3.7v14.2c0,.3-.2.6-.3.7-.1.1-.4.3-.7.3h-10.5v-16.2h10.4,0Z"/>
      <path class="st4" d="M94.6,23.6c.3,0,.6.1.8.3.2.2.3.5.3.8s-.1.6-.3.8c-.2.2-.5.3-.8.3h-5.7c-.4,0-.6-.1-.8-.3-.2-.2-.3-.5-.3-.8s0-.6.3-.8c.2-.2.5-.3.8-.3h5.7ZM96.5,27c.3,0,.6.1.8.3.2.2.3.5.3.8s-.1.6-.3.8c-.2.2-.5.3-.8.3h-5.7c-.4,0-.6-.1-.8-.3-.2-.2-.3-.5-.3-.8s0-.6.3-.8c.2-.2.5-.3.8-.3h5.7ZM109.9,23.6c.3,0,.6.1.8.3.2.2.3.5.3.8s0,.6-.3.8c-.2.2-.5.3-.8.3h-5.7c-.3,0-.6-.1-.8-.3-.2-.2-.3-.5-.3-.8s.1-.6.3-.8c.2-.2.5-.3.8-.3h5.7ZM111.8,27c.3,0,.6.1.8.3.2.2.3.5.3.8s0,.6-.3.8c-.2.2-.5.3-.8.3h-5.7c-.4,0-.6-.1-.8-.3-.2-.2-.3-.5-.3-.8s.1-.6.3-.8c.2-.2.5-.3.8-.3h5.7ZM89.1,33.8c0-.2,0-.4.2-.6,0-.1.3-.2.6-.2h8.8v1.9h-9.7v-1.1h0ZM98.8,37.5v1.9h-8.8c-.3,0-.5,0-.6-.2-.1-.1-.2-.3-.2-.6v-1.1h9.7ZM110.8,33c.3,0,.5,0,.7.3.1.1.2.3.2.6v1h-9.6v-1.9h8.8ZM111.6,37.5v1c0,.3,0,.5-.2.6-.1.1-.3.2-.6.2h-8.8v-1.9h9.6ZM114.6,43.8h-11.2c-.4,0-.9,0-1.2-.4-.3-.3-.2-.9-.2-1.6h10.5c.5,0,1-.2,1.5-.6.4-.5.7-1,.7-1.5v-7.3c0-.5-.2-1-.6-1.3-.5-.4-1-.6-1.6-.6h-24.6c-.5,0-1,.2-1.3.5-.4.4-.5.8-.5,1.3v7.3c0,.6.2,1.1.5,1.5.3.4.8.6,1.3.7h10.9v1.1c0,1.3.7,2.2,1.3,2.7.7.6,1.6.7,2.3.7h12.3c.7,0,1.3-.6,1.3-1.3s-.6-1.3-1.3-1.3h0ZM113.7,22.3c.2,0,.4.1.5.2.1.1.2.3.2.5v4.7c0,.5.2,1,.5,1.2.3.3.7.4,1.1.4s.8-.2,1.1-.5c.2-.2.4-.7.4-1.2v-5.6c0-.7-.2-1.3-.7-1.8-.5-.5-1.1-.8-1.8-.7h-13.1v-1.6h11.2c.4,0,.7-.2.9-.4.2-.2.4-.6.4-.9s-.1-.7-.4-1c-.2-.2-.6-.3-.9-.3h-25.4c-.4,0-.7.1-1,.4-.3.2-.4.6-.4.9s.2.8.4,1c.2.2.5.4,1,.4h11.1v1.6h-13.1c-.6,0-1.3.3-1.8.7-.5.5-.8,1.1-.7,1.8v5.6c0,.5.2,1,.4,1.2.2.2.7.5,1.1.5s.8-.1,1.1-.4c.3-.3.5-.7.5-1.2v-4.7c0-.2,0-.4.2-.5.1-.1.3-.2.5-.2h11.8v5.8c0,.5.2,1,.4,1.2.3.3.7.4,1.1.4s.9-.2,1.1-.4c.2-.3.5-.7.5-1.2v-5.8h11.8Z"/>
      <path class="st1" d="M256.3,30.1c-2.9-1.3-5.8-2.3-8.6-2.8-2.8-.6-5.6-.8-8.4-.8-8.2,0-15.3,2.1-21.3,6.1-4,2.7-7.2,6-9.4,10-.9-1.4-2.1-2.5-3.6-3.5-1.7-1.1-3.8-1.8-6.3-2.4-2.5-.5-5.3-.8-8.3-.8h-3.2l2.9-11.1h23.8l2.5-9.6h-34l-7.5,28.9h11.6c2.4,0,4.4.2,6,.5,1.6.3,2.8.8,3.7,1.4.9.6,1.5,1.3,1.8,2.1.3.8.5,1.7.4,2.7,0,1.4-.4,2.8-1.1,4.1-.7,1.3-1.7,2.5-3.1,3.6s-3.1,1.9-5.1,2.5c-2.1.6-4.6.9-7.4.9s-4.6-.1-6.7-.3c-2.1-.2-4-.5-5.6-.9l-2.3,8.9c.8.1,1.8.3,2.9.4,1.1.1,2.2.2,3.3.3,1.2,0,2.3.2,3.4.2s2.1,0,3.1,0c4.9,0,9.3-.6,13-1.7s6.9-2.6,9.5-4.5c1.3-1,2.4-2,3.4-3.2.6,1.6,1.4,3,2.6,4.2,1.8,1.8,4.2,3.2,7.2,4.1,2.9.9,6.4,1.3,10.3,1.3,3,0,6.3-.4,9.8-1.2,3.4-.8,6.6-1.7,9.6-2.8.6-.2,1.1-.7,1.3-1.2l5.4-17.3c.2-.7-.3-1.3-1.1-1.3h-19.1c-.9.1-1.7.7-2,1.5l-1.5,4.7c-.2.7.3,1.3,1.2,1.3h11.2c0,0-2.4,7.6-2.4,7.6-1.3.4-2.8.7-4.4,1-2,.3-4.1.5-6,.5-5.2,0-8.8-1.2-10.9-3.8-2.1-2.6-2.4-6.4-.9-11.2,1.4-4.6,4-8.2,7.6-10.9,3.6-2.7,7.8-4,12.7-4,0,0,9-.7,16.2,5.2,1.9,1.1,2.3-.5,2.3-.5l2.2-7.2c.2-.5,0-1-.5-1.2h0Z"/>
      <path class="st3" d="M234.6,16.6c4.9-4.7,10.1-4.1,16.3-3.2,10.1-3.9,13.1-10.8,14.4-12.8-13.5,15.8-25.1,4.6-33.5,14.6,0,0-13,4.3-14.4,15,.2-.7.5-1.3.8-2,4.5-10.8,16.3-11.7,16.3-11.7h0Z"/>
      <path class="st2" d="M250.9,13.4c10.1-3.9,13.1-10.8,14.4-12.8-13.5,15.8-25.1,4.6-33.5,14.6,0,0-13,4.3-14.4,15,.2-.7.5-1.3.8-2,7.4-7,23.1-9.3,32.7-14.9h0Z"/>
      <path class="st6" d="M234.6,16.6s-11.9.9-16.3,11.7c4.7-9.6,17.1-10.8,28.3-13.5,1.6-.4,3-.9,4.4-1.4-6.2-.9-11.5-1.5-16.4,3.2h0Z"/>
      <path class="st7" d="M256.5,18.6c.2,0,.3,0,.5,0,11.1-.5,18.6-3.6,25.6-11-13.4,8.9-23.4,7.1-31.7,5.9-1.3.5-2.8,1-4.4,1.4-11.2,2.7-23.6,3.9-28.3,13.5-.2.5-.7,1.4-.8,2,.1-.2.5-.7.6-.9,7.6-10.5,18.3-10.5,18.3-10.5,8.9-4.2,14.3-2.5,20.1-.3h.1,0Z"/>
      <path class="st9" d="M217.9,30c13.3-12.5,22.2-11,37.6-11.3.3,0,.6,0,.9,0-5.8-2.2-11.2-3.9-20.1.3,0,0-11.1,0-18.7,11.1,0,0-.1.2-.1.3.1,0,.3-.2.5-.3h0Z"/>
      <path class="st8" d="M256.4,18.6c-.3,0-.6,0-.9,0-15.3.3-24.2-1.2-37.5,11.3,19.9-12.6,32.3-6.8,46.2-5,16.6,2.2,24.2-5.9,26.9-7.7-18.3,8.4-26.8,4.3-34.6,1.3h0Z"/>
    </g>
  </g>
  <g>
    <g>
      <polygon class="st5" points="318.9 13 318 13 314.4 13 321.8 0 313.7 0 306.3 13 301.6 13 299.9 16.1 304.5 16.1 291.1 39.6 299.2 39.6 312.6 16.1 316.3 16.1 292.6 57.7 300.7 57.7 326.1 13 318.9 13"/>
      <path class="st5" d="M346.1,13h-17.6l-15.2,26.6h19l15.2-26.6h-1.4ZM325.9,36.6h-2.8l11.7-20.5h2.8l-11.7,20.5Z"/>
      <path class="st5" d="M419,23.9h9.2l8.3-14.6h-16.8l-1.2,2-6,10.5-.5.8h-1.3l.5-.8,6-10.5,1.2-2h-16.8l-8.3,14.6h11.9l-2.1,1.5h-10.7l-1.8,3.1h8l-13.5,9.4h2.7l-5.5,9.7-9.4-10.7h8.5l10.8-18.9h-11.1l.9-1.5h11.1l1.8-3.1h-11.1l2.2-3.9h-8.1l-2.2,3.9h-11l-1.8,3.1h11l-.9,1.5h-11l-10.8,18.9h11l-1.1,2h-6.2l-8.7,6.9h8.6l4.4-3.5-3.6,6.4h-12.5l10.2-17.8h-4.5l7-12.3h-8.1l-7,12.3h4.5l-11.9,20.9h40.1l1.7-3.1,5.7,6.5h8.3l-3.1-3.5h10.7l1.2-2,6-10.5,1.2-2h-7.7l11.3-7.9,6.8,7.9h-9.1l-1.2,2-6,10.5-1.2,2h16.8l7.2-12.5h3.6l-9.2-10.7h9.1l1.8-3.1h-13l2.1-1.5h2.6ZM426.1,11.3h1.6l-6,10.5h-1.6l6-10.5ZM379.5,21h3l-7.3,12.8h-3l7.3-12.8ZM361.1,33.8l7.3-12.8h2.9l-7.3,12.8h-2.9ZM363.7,48.6l4.5-7.8,6.9,7.8h-11.4ZM390.4,49.6h-1.6l6-10.5h1.6l-6,10.5ZM403.7,21.8h-1.6l6-10.5h1.6l-6,10.5ZM408.5,49.6h-1.6l6-10.5h1.6l-6,10.5Z"/>
    </g>
    <g>
      <g>
        <g>
          <path class="st5" d="M305.6,59.7l-.6,1.4h.7l-.6,1.4h-.7l-2.1,4.7c-.3.6-.4.9-.3,1,0,0,.3,0,.7,0l-.6,1.4h-1.1c-.6,0-1,0-1.3,0-.2,0-.4-.2-.5-.3-.1-.2-.2-.4,0-.6,0-.2.3-.8.7-1.7l2-4.4h-.6l.6-1.4h.6l.6-1.4h2.7Z"/>
          <path class="st5" d="M308.8,64.3h-2.5l.3-.6c.3-.7.6-1.2.9-1.6.3-.4.8-.7,1.4-1,.6-.3,1.3-.4,2-.4s1.5.2,1.9.5c.3.3.4.7.3,1.2s-.5,1.4-1.1,2.9l-1.9,4.4h-2.6l.3-.8c-.3.3-.6.5-.9.7s-.7.2-1,.2-.8-.1-1.1-.4-.2-.8.2-1.7l.3-.7c.3-.7.6-1.1.9-1.3s1-.5,1.9-.8c1-.3,1.6-.6,1.7-.7.1-.1.3-.4.4-.7.2-.5.3-.8.3-.9,0-.1,0-.2-.3-.2s-.3,0-.4.2-.3.4-.5.9l-.4.9ZM309.1,65.5c-.6.3-.9.6-1.1.8-.2.2-.3.5-.5.9-.2.5-.3.7-.3.9,0,.1,0,.2.3.2s.3,0,.4-.2c0-.1.2-.4.4-.8l.8-1.8Z"/>
          <path class="st5" d="M318.9,60.9l-.6,1.1c.8-.8,1.5-1.3,2.3-1.3l-1.4,3.1c-.5,0-.9,0-1.2.2-.3.1-.5.3-.7.5s-.4.8-.8,1.6l-1.5,3.4h-2.7l3.8-8.7h2.7Z"/>
          <path class="st5" d="M326.2,59.7l-.6,1.4h.7l-.6,1.4h-.7l-2.1,4.7c-.3.6-.4.9-.3,1,0,0,.3,0,.7,0l-.6,1.4h-1.1c-.6,0-1,0-1.3,0-.2,0-.4-.2-.5-.3-.1-.2-.2-.4,0-.6,0-.2.3-.8.7-1.7l2-4.4h-.6l.6-1.4h.6l.6-1.4h2.7Z"/>
          <path class="st5" d="M334.6,60.9l-3.8,8.7h-2.7l.4-.7c-.3.3-.6.5-1,.7-.3.1-.7.2-1,.2s-.7,0-.9-.2c-.2-.1-.3-.3-.3-.6,0-.2,0-.5,0-.7,0-.3.3-.8.6-1.5l2.6-5.9h2.7l-2.6,5.9c-.3.7-.5,1.1-.5,1.2,0,.1,0,.2.3.2s.3,0,.4-.2.3-.6.6-1.3l2.6-5.9h2.7Z"/>
          <path class="st5" d="M339.8,60.9l-.4.8c.4-.3.7-.5,1.1-.7.4-.2.7-.2,1.1-.2s.7.1.9.3.3.5.2.8c0,.3-.2.8-.5,1.5l-1.6,3.7c-.3.8-.6,1.4-.9,1.7-.2.3-.6.6-.9.8-.4.2-.8.3-1.2.3s-.6,0-.8-.2c-.2-.2-.4-.4-.5-.7l-.9,2h-2.7l4.4-10h2.7ZM339.4,63.4c.2-.5.4-.9.4-1,0-.1,0-.2-.3-.2s-.3,0-.4.2c-.1.1-.3.4-.5,1l-1.6,3.6c-.2.5-.3.9-.4,1s0,.2.3.2.3,0,.4-.2c0-.1.2-.4.5-.9l1.6-3.7Z"/>
        </g>
        <path class="st5" d="M291.3,62.6h6.9c.2,0,3.8-3,3.8-3h-8.9s-1.8-.1-3.7,1.2c-1.6,1.1-2.5,2.7-2.7,4.4-.3,2.7,2.5,2.7,2.5,2.7h4.1s1.3,0,.4,1.5c-.5.9-1.6,1-2.1,1h-6.2c-.2,0-2.7,3-2.7,3h8.4s.8,0,1.2-.1c.7-.2,1.4-.4,2.5-1.3s2.8-2.8,2.8-4.5c.1-2.8-2.1-2.8-2.1-2.8h-.3,0s-4.5,0-4.5,0c0,0,0,0,0,0h-.1c-.3,0-.8-.2-.3-1.4.3-.6.8-.7,1-.7Z"/>
      </g>
      <g>
        <path class="st5" d="M366.9,64.1h-2.5l.4-1c.2-.4.2-.6.2-.7,0-.1,0-.2-.2-.2s-.3,0-.4.2c-.1.1-.2.4-.4.7l-1.8,4.1c-.1.3-.2.5-.2.7,0,.2,0,.2.3.2s.3,0,.5-.2c.1-.2.3-.5.5-.9l.5-1h2.4c-.3.7-.6,1.2-.8,1.6-.2.3-.5.7-.9,1.1-.4.4-.9.6-1.4.8-.5.2-1,.3-1.6.3s-1.3-.1-1.6-.4-.5-.6-.5-1.1.2-1.1.6-2l1.1-2.5c.3-.7.6-1.3,1-1.7.3-.4.8-.7,1.4-1,.6-.3,1.3-.4,2-.4s1.2.1,1.6.4c.4.3.5.7.5,1.1,0,.4-.2,1.1-.6,1.9Z"/>
        <path class="st5" d="M374.7,64.1h-2.5l.4-1c.2-.4.2-.6.2-.7,0-.1,0-.2-.2-.2s-.3,0-.4.2c-.1.1-.2.4-.4.7l-1.8,4.1c-.1.3-.2.5-.2.7,0,.2,0,.2.3.2s.3,0,.5-.2c.1-.2.3-.5.5-.9l.5-1h2.4c-.3.7-.6,1.2-.8,1.6-.2.3-.5.7-.9,1.1-.4.4-.9.6-1.4.8-.5.2-1,.3-1.6.3s-1.3-.1-1.6-.4-.5-.6-.5-1.1.2-1.1.6-2l1.1-2.5c.3-.7.6-1.3,1-1.7.3-.4.8-.7,1.4-1,.6-.3,1.3-.4,2-.4s1.2.1,1.6.4c.4.3.5.7.5,1.1,0,.4-.2,1.1-.6,1.9Z"/>
        <path class="st5" d="M382.1,65.3h-3.5l-.8,1.9c-.2.4-.3.6-.2.8,0,.1,0,.2.3.2s.4,0,.5-.2c.1-.2.3-.4.5-.9l.5-1.2h2.6l-.3.6c-.2.5-.5,1-.7,1.2-.2.3-.5.6-.9.9-.4.3-.8.6-1.3.7-.5.2-1,.2-1.6.2s-1,0-1.4-.2c-.4-.2-.6-.4-.7-.7-.1-.3-.1-.6,0-.9,0-.3.2-.8.5-1.5l1.1-2.5c.3-.8.7-1.4,1.1-1.8.4-.4.9-.8,1.5-1,.6-.2,1.2-.4,1.8-.4s1.3.1,1.7.4c.4.3.5.7.5,1.1,0,.5-.2,1.1-.6,2l-.5,1.2ZM380,63.9l.3-.6c.2-.5.3-.7.3-.9,0-.1,0-.2-.2-.2s-.3,0-.4.2c0,.1-.2.4-.5.9l-.3.6h.8Z"/>
        <path class="st5" d="M389.7,58.9l-4.7,10.7h-2.8l4.7-10.7h2.8Z"/>
        <path class="st5" d="M394.9,65.3h-3.5l-.8,1.9c-.2.4-.3.6-.2.8,0,.1,0,.2.3.2s.4,0,.5-.2c.1-.2.3-.4.5-.9l.5-1.2h2.6l-.3.6c-.2.5-.5,1-.7,1.2-.2.3-.5.6-.9.9-.4.3-.8.6-1.3.7-.5.2-1,.2-1.6.2s-1,0-1.4-.2c-.4-.2-.6-.4-.7-.7-.1-.3-.1-.6,0-.9,0-.3.2-.8.5-1.5l1.1-2.5c.3-.8.7-1.4,1.1-1.8s.9-.8,1.5-1c.6-.2,1.2-.4,1.8-.4s1.3.1,1.7.4c.4.3.5.7.5,1.1,0,.5-.2,1.1-.6,2l-.5,1.2ZM392.9,63.9l.3-.6c.2-.5.3-.7.3-.9,0-.1,0-.2-.2-.2s-.3,0-.4.2c0,.1-.2.4-.5.9l-.3.6h.8Z"/>
        <path class="st5" d="M401.5,60.8l-.6,1.1c.8-.8,1.5-1.3,2.3-1.3l-1.4,3.1c-.5,0-.9,0-1.2.2-.3.1-.5.3-.7.5-.2.2-.4.8-.8,1.6l-1.5,3.4h-2.7l3.8-8.7h2.7Z"/>
        <path class="st5" d="M405.7,64.2h-2.5l.3-.6c.3-.7.6-1.2.9-1.6.3-.4.8-.7,1.4-1,.6-.3,1.3-.4,2-.4s1.5.2,1.9.5c.3.3.4.7.3,1.2-.1.5-.5,1.4-1.1,2.9l-1.9,4.4h-2.6l.3-.8c-.3.3-.6.5-.9.7-.3.2-.7.2-1,.2s-.8-.1-1.1-.4c-.3-.3-.2-.8.2-1.7l.3-.7c.3-.7.6-1.1.9-1.3.3-.2,1-.5,1.9-.8,1-.3,1.6-.6,1.7-.7s.3-.4.4-.7c.2-.5.3-.8.3-.9s0-.2-.3-.2-.3,0-.4.2c0,.1-.3.4-.5.9l-.4.9ZM406,65.4c-.6.3-.9.6-1.1.8-.2.2-.3.5-.5.9-.2.5-.3.7-.3.9s0,.2.3.2.3,0,.4-.2c0-.1.2-.4.4-.8l.8-1.8Z"/>
        <path class="st5" d="M416.1,59.7l-.6,1.4h.7l-.6,1.4h-.7l-2.1,4.7c-.3.6-.4.9-.3,1,0,0,.3,0,.7,0l-.6,1.4h-1.1c-.6,0-1,0-1.3,0-.2,0-.4-.2-.5-.3-.1-.2-.2-.4,0-.6,0-.2.3-.8.7-1.7l2-4.4h-.6l.6-1.4h.6l.6-1.4h2.7Z"/>
        <path class="st5" d="M422.7,63.9l-.9,2.1c-.3.8-.6,1.4-.9,1.7-.2.4-.6.7-1,1-.4.3-.8.6-1.3.7-.5.2-1,.2-1.5.2s-1.1,0-1.4-.2c-.4-.1-.6-.3-.7-.6-.1-.3-.1-.6,0-.9,0-.4.3-.9.6-1.7l1-2.2c.4-.8.7-1.4,1.1-1.9s.9-.8,1.4-1.1c.6-.3,1.2-.4,2-.4s1.1,0,1.4.3c.4.2.6.4.7.7s.1.6,0,.9c0,.3-.2.8-.5,1.4ZM420.2,63.2c.2-.4.3-.7.3-.8,0-.1,0-.2-.2-.2s-.3,0-.4.2c-.1.1-.3.4-.5.8l-1.7,3.9c-.2.4-.3.7-.3.8,0,.1,0,.2.2.2s.3,0,.4-.2c.1-.1.2-.4.4-.7l1.8-4Z"/>
        <path class="st5" d="M428.6,60.8l-.6,1.1c.8-.8,1.5-1.3,2.3-1.3l-1.4,3.1c-.5,0-.9,0-1.2.2-.3.1-.5.3-.7.5-.2.2-.4.8-.8,1.6l-1.5,3.4h-2.7l3.8-8.7h2.7Z"/>
      </g>
      <path class="st5" d="M354.9,60.5l-13.1,15.8h4l4.7-5.7h4.4v2.3h3.1v-16.2l-3.1,3.7ZM354.9,68h-2.2l2.2-2.6v2.6Z"/>
    </g>
    <g>
      <g>
        <path class="st5" d="M11.9,68.8c-.9.6-2.3,1.1-4.8,1.1C2.9,69.9,0,66.6,0,62.8s2.9-7.2,7.1-7.2,4,.7,4.6,1l-.7,1.7c-.5-.2-1.6-.8-3.8-.8s-4.7,2.2-4.7,5.3,2.3,5.3,4.8,5.3,3.1-.5,3.8-.9l.8,1.6ZM19.6,69.6v-6c0-.9-.4-1.6-1.5-1.6s-1.9.6-2.3.9v6.7h-2.2v-13.2l2.2-.6v5.6c.4-.3,1.3-1.2,3.3-1.2s2.7,1.1,2.7,2.8v6.5h-2.2ZM61.5,69.6v-6c0-.9-.4-1.6-1.5-1.6s-1.9.6-2.3.9v6.7h-2.2v-13.2l2.2-.6v5.6c.4-.3,1.3-1.2,3.3-1.2s2.7,1.1,2.7,2.8v6.5h-2.2ZM40.5,69.6v-6c0-.9-.4-1.6-1.5-1.6s-1.9.6-2.3.9v6.7h-2.2v-8.5l2.1-.6v.9c.5-.3,1.5-1.2,3.3-1.2s2.8,1.1,2.8,2.8v6.5h-2.2ZM48,66.2c-.6,0-1.6.2-1.6.9s1,.9,1.6.9h2.6c2,0,3.4,1.2,3.2,3.2-.2,2.1-2.6,3.5-4.7,3.5s-5-.6-5-2.6,1.1-2.1,1.6-2.4c-.4-.2-1.1-.8-1.1-2s.8-2,1.6-2.3c-.5-.3-1.1-.9-1.1-2s1.1-2.9,3.4-2.9,1.5.1,1.8.2h3.5v1.2h-2c.2.2.6.7.6,1.5,0,1.9-1.8,2.9-3.6,2.9h-.9ZM45.9,71.7c0,1,1.6,1.4,2.9,1.4s2.8-.9,2.9-1.8c.2-1-.6-1.5-1.5-1.5h-3c-.5.3-1.4,1-1.4,1.9ZM47.1,63.3c0,.9.6,1.6,1.7,1.6s1.6-.7,1.6-1.6-.5-1.6-1.6-1.6-1.7.8-1.7,1.6ZM69.7,60.5h2l2,6,2.1-6h1.9l-3.5,9.2h-1.2l-1.6-4.7-1.8,4.7h-1.2l-3.3-9.2h2.1l2,6.1,1.4-3.6-.9-2.6ZM81.1,69.8c-1.7,0-2.8-1-2.8-2.5s1.2-2.9,3.5-3.1h1.9v-.9c0-.8-.3-1.6-1.7-1.6s-2.1.4-2.5.6l-.5-1.2c.6-.3,1.8-.9,3.7-.9s3.2,1.1,3.2,2.7v5.2c0,.5.2,1.2.3,1.4h-2.3c-.1-.3-.2-.6-.2-.8-.5.4-1.4,1-2.7,1ZM83.7,65.4h-1.3c-1.2.2-2.1.6-2.1,1.6s.7,1.2,1.5,1.2,1.5-.5,1.9-.8v-2.1ZM26.3,60.5v6c0,.9.3,1.6,1.4,1.6s1.8-.6,2.2-.9v-6.7h2.2v8.5l-2.1.6v-1c-.5.3-1.5,1.2-3.3,1.2s-2.6-1.1-2.6-2.8v-6.5h2.2ZM89.1,55.9h11.2v1.8h-4.4v12h-2.4v-12h-4.4v-1.8ZM103.3,68.3c1.4,0,2.1-.3,2.5-.5l.5,1.2c-.5.2-1.4.8-3.7.8s-4.6-1.8-4.6-4.7,1.9-4.8,4.4-4.8,4.2,1.5,4.2,5h-6.2c0,1.9,1,3,2.9,3ZM102.4,61.8c-1.2,0-1.8.9-1.9,2.1h3.8c-.1-1.4-.8-2.1-1.9-2.1ZM108.5,56.5l2.2-.6v13.8h-2.2v-13.2ZM117.9,68.3c1.4,0,2.1-.3,2.5-.5l.5,1.2c-.5.2-1.4.8-3.7.8s-4.6-1.8-4.6-4.7,1.9-4.8,4.4-4.8,4.2,1.5,4.2,5h-6.2c0,1.9,1,3,2.9,3ZM117,61.8c-1.2,0-1.8.9-1.9,2.1h3.8c-.1-1.4-.8-2.1-1.9-2.1ZM127.4,60.3c1.8,0,2.6.4,3.1.6l-.5,1.4c-.5-.2-1.1-.4-2.3-.4s-2.7,1.1-2.7,3.2,1.5,3.2,2.7,3.2,1.9-.2,2.4-.4l.5,1.3c-.5.3-1.3.6-3.2.6-2.9,0-4.8-1.9-4.8-4.7s2.3-4.8,4.8-4.8ZM141.2,65.1c0,2.9-2.2,4.7-5,4.7s-4.9-1.8-4.9-4.7,2.2-4.8,4.9-4.8,5,1.8,5,4.8ZM133.7,65.1c0,1.9,1,3.3,2.6,3.3s2.5-1.4,2.5-3.3-1.1-3.3-2.5-3.3-2.6,1.4-2.6,3.3ZM156.2,69.6h-2.2v-6c0-.9-.3-1.6-1.3-1.6s-1.5.6-1.9.9v6.8h-2.2v-6c0-.9-.3-1.6-1.3-1.6s-1.5.6-1.9.9v6.7h-2.2v-8.5l2.1-.6v1c.5-.4,1.5-1.2,2.9-1.2s1.9.4,2.3,1.2c.5-.4,1.5-1.2,3.1-1.2s2.7,1.2,2.7,2.7v6.5Z"/>
        <g>
          <path class="st5" d="M130.9,14.4c.5.1.8.4,1,.6.2.3.3.8.2,1.3-.6,2.7-1.2,5.1-1.9,7v21.9c0,.5-.2.9-.5,1.2-.3.3-.7.5-1.1.5-.4,0-.8-.1-1.1-.4-.3-.3-.4-.7-.4-1.3v-15.7c-.8,1.2-1.3,1.3-1.7,1.3-.3,0-.8,0-1.1-.3-.3-.3-.6-.7-.6-1.1,0-.4.2-.9.5-1.3,2.6-3.8,4.3-7.9,4.9-12.3,0-.5.4-1,.7-1.2.3-.2.8-.4,1.3-.3ZM136.1,35.1h17.8c.7,0,1.3.2,1.8.6.4.4.6.8.6,1.4v6.8c0,.6-.3,1.2-.8,1.7-.5.5-1,.8-1.6.8h-17.8c-.6,0-1.1-.3-1.5-.7-.4-.5-.6-1.1-.6-1.7v-6.8c0-.6.2-1.1.6-1.5.4-.4.9-.6,1.5-.6ZM138.2,38.1c-.5,0-.6.1-.7.2-.1.1-.2.3-.2.7v3.4c0,.4,0,.6.2.7.2.2.4.3.8.3h13.9c.4,0,.7-.1.8-.2.1-.1.2-.4.2-.7v-3.3c0-.3,0-.6-.2-.7-.2-.2-.4-.3-.8-.3h-14ZM136,29.9c-.5,0-.9.2-1.1.4-.3.3-.4.7-.4,1.1s.1.8.4,1.1c.3.3.7.4,1.1.4h18.5c.5,0,.9-.2,1.1-.4.3-.3.4-.7.4-1.1s-.1-.8-.4-1.1c-.2-.2-.6-.4-1.1-.4h-18.5ZM136,25.1c-.5,0-.8.1-1.1.4-.3.3-.4.7-.4,1.1s.1.8.4,1.1c.3.3.6.5,1.1.5h18.5c.5,0,.8-.2,1.1-.5.3-.3.4-.7.4-1.1s-.1-.8-.4-1c-.3-.3-.6-.5-1.1-.5h-18.5ZM133.7,20.1c-.6,0-.9.2-1.1.4-.3.3-.4.7-.4,1.1s.2.8.4,1.1c.3.3.6.4,1.1.4h23c.5,0,.9-.2,1.1-.4.3-.3.4-.7.4-1.1s-.1-.8-.4-1.1c-.3-.3-.6-.4-1.1-.4h-23ZM136,15.3c-.5,0-.9.2-1.1.4-.3.3-.4.6-.4,1.1s.1.8.4,1.1c.3.2.6.4,1.1.4h18.5c.5,0,.9-.2,1.1-.4.3-.3.4-.6.4-1.1s-.1-.8-.4-1.1c-.2-.2-.6-.4-1.1-.4h-18.5Z"/>
          <path class="st5" d="M75.5,17.8c0,.4-.1.8-.4,1-.3.3-.6.4-1.1.4h-7.3c0,.6-.1,1-.5,1.4-.3.3-.7.5-1.1.5s-.8-.2-1.2-.5c-.3-.3-.4-.7-.4-1.2h0c0-.1-9.1-.1-9.1-.1h0c0,.6-.1,1-.5,1.4-.3.3-.7.5-1.1.5s-.9-.2-1.2-.5c-.3-.3-.4-.7-.4-1.2h0c0-.1-7.3-.1-7.3-.1-.5,0-.8-.2-1.1-.4-.3-.3-.4-.7-.4-1.1s.2-.8.4-1c.3-.3.6-.4,1.1-.4h7.3v-.7c0-.5.1-.9.4-1.2.3-.3.7-.5,1.2-.5s.8.2,1.1.5c.3.3.5.7.5,1.2v.7h9.2v-.7c0-.5.1-.9.4-1.2.3-.3.7-.5,1.2-.5s.9.2,1.1.5c.3.3.5.8.5,1.2v.7h7.3c.4,0,.8.2,1.1.4.3.3.4.7.4,1ZM52.4,30.8v3h5v-3h-5ZM60.6,24.7v3.1h5v-3.1h-5ZM65.5,31.2v-.4h-5v3h12.6c.4,0,.8.1,1,.4.3.3.4.8.4,1.1s-.1.7-.4,1c-.3.3-.6.4-1.1.4h-12.6v2.4h13.5c.4,0,.8.1,1,.4.3.3.4.7.4,1.1s-.2.8-.4,1.1c-.2.3-.6.4-1,.4h-13.5v3.2c0,.5-.1.9-.5,1.2-.3.3-.7.5-1.2.5s-.8-.2-1.1-.5c-.3-.3-.4-.7-.4-1.2v-3.2h-13.5c-.5,0-.8-.1-1.1-.4-.3-.3-.4-.8-.4-1.1s.1-.8.4-1.1c.3-.3.6-.4,1.1-.4h13.4v-2.4h-12.6c-.5,0-.8-.1-1.1-.4-.3-.3-.4-.7-.4-1s.1-.8.4-1.1c.2-.2.6-.4,1.1-.4h4.4v-3h-6.2c-.4,0-.8-.1-1.1-.4-.3-.3-.4-.7-.4-1.1s.2-.7.4-1c.3-.3.6-.4,1.1-.4h6.2v-.3c0-.5.1-.9.4-1.2.3-.3.7-.5,1.2-.5s.9.2,1.2.5c.3.3.4.7.4,1.2v.3h5v-3.1h-12.5c-.5,0-.8-.2-1.1-.4-.3-.3-.4-.8-.4-1.1s.2-.8.4-1c.3-.2.6-.4,1.1-.4h28.3c.4,0,.8.1,1,.4.3.3.4.7.4,1.1s-.2.7-.4,1c-.3.3-.6.5-1.1.5h-4.4v3.1h6.2c.5,0,.8.1,1,.4.3.3.4.7.4,1.1s0,.7-.4,1c-.3.3-.6.4-1,.4h-6.2v.4c0,.5-.2.8-.5,1.1-.3.3-.7.5-1.2.5s-.8-.2-1.2-.5c-.3-.3-.4-.7-.4-1.1h0Z"/>
          <path class="st5" d="M15.3,14.3c-.3.3-.4.8-.4,1.3v2.5H3.1c-.9,0-1.6.3-2.2.9C.3,19.6,0,20.3,0,21.1v16.9c0,.8.3,1.5.9,2.1.6.6,1.4.9,2.2.9h11.7v4.1c0,.6.2,1.1.5,1.4.2.2.7.5,1.3.5s1-.3,1.2-.5c.3-.3.5-.8.5-1.4v-4.1h11.8c.9,0,1.7-.5,2.2-.9.5-.5.9-1.4.9-2.2v-16.7c0-.8-.3-1.6-.8-2.2-.6-.7-1.4-1-2.3-1h-11.7v-2.5c0-.5-.2-1-.5-1.3-.3-.3-.8-.5-1.3-.5s-1,.2-1.3.5ZM3.6,37.4c-.2-.2-.3-.4-.3-.7v-14.2c0-.3.1-.5.3-.7.2-.2.5-.3.7-.3h10.5v16.2H4.4c-.3,0-.6,0-.8-.3ZM28.8,21.4c.3,0,.6.1.8.3.2.2.3.4.3.7v14.2c0,.3-.2.6-.3.7-.1.1-.4.3-.7.3h-10.5v-16.2h10.4Z"/>
          <path class="st5" d="M94.6,23.5c.3,0,.6,0,.8.3.2.2.3.5.3.8s-.1.6-.3.8c-.2.2-.5.3-.8.3h-5.7c-.4,0-.6-.1-.8-.3-.2-.2-.3-.5-.3-.8s0-.6.3-.8c.2-.2.5-.3.8-.3h5.7ZM96.5,26.9c.3,0,.6.1.8.3.2.2.3.5.3.8s-.1.6-.3.8c-.2.2-.5.3-.8.3h-5.7c-.4,0-.6-.1-.8-.3-.2-.2-.3-.5-.3-.8s0-.6.3-.8c.2-.2.5-.3.8-.3h5.7ZM109.9,23.5c.3,0,.6,0,.8.3.2.2.3.5.3.8s-.1.6-.3.8c-.2.2-.5.3-.8.3h-5.7c-.4,0-.6-.1-.8-.3-.2-.2-.3-.5-.3-.8s.1-.6.3-.8c.2-.2.5-.3.8-.3h5.7ZM111.8,26.9c.3,0,.6.1.8.3.2.2.3.5.3.8s0,.6-.3.8c-.2.2-.5.3-.8.3h-5.7c-.4,0-.6-.1-.8-.3-.2-.2-.3-.5-.3-.8s.1-.6.3-.8c.2-.2.5-.3.8-.3h5.7ZM89.1,33.7c0-.2,0-.4.2-.6.1-.1.3-.2.6-.2h8.8v1.9h-9.7s0-1.1,0-1.1ZM98.7,37.4v1.9h-8.8c-.3,0-.5,0-.6-.2-.1-.1-.2-.3-.2-.6v-1.1h9.7ZM110.8,33c.3,0,.5,0,.7.3.1.1.2.3.2.6v1h-9.7v-1.9h8.8ZM111.6,37.4v1.1c0,.3,0,.5-.2.6-.1.1-.3.2-.6.2h-8.8v-1.9h9.7ZM114.6,43.8h-11.3c-.4,0-.9,0-1.2-.4-.3-.3-.2-.9-.2-1.6h10.5c.5,0,1-.2,1.5-.6.4-.4.7-1,.7-1.5v-7.3c0-.5-.2-1-.6-1.3-.5-.4-1-.6-1.6-.6h-24.6c-.5,0-1,.2-1.3.5-.4.4-.5.8-.5,1.3v7.3c0,.6.1,1.1.5,1.5.3.4.8.6,1.3.6h10.9v1.1c0,1.3.7,2.2,1.3,2.7.7.5,1.6.7,2.3.7h12.3c.7,0,1.3-.6,1.3-1.3s-.6-1.3-1.3-1.3ZM113.7,22.2c.2,0,.4.1.5.2.1.1.2.3.2.5v4.7c0,.5.2,1,.5,1.3.3.3.7.4,1.1.4s.9-.2,1.1-.5c.2-.2.4-.7.4-1.2v-5.6c0-.7-.2-1.3-.7-1.8-.5-.5-1.1-.8-1.8-.7h-13.1v-1.6h11.2c.4,0,.7-.2.9-.4.2-.2.4-.6.4-.9s-.1-.7-.4-1c-.2-.2-.6-.3-.9-.3h-25.4c-.4,0-.7.1-1,.4-.3.3-.4.6-.4.9s.2.7.4,1c.2.2.5.4,1,.4h11.1v1.6h-13.1c-.6,0-1.3.3-1.8.7-.5.5-.8,1.1-.7,1.8v5.6c0,.5.2,1,.4,1.2.2.2.7.5,1.1.5s.8-.1,1.1-.4c.3-.3.5-.7.5-1.3v-4.7c0-.2,0-.4.2-.5.1-.1.3-.2.5-.2h11.8v5.8c0,.5.2,1,.5,1.2.3.3.7.4,1.1.4s.9-.2,1.1-.4c.3-.3.5-.7.5-1.2v-5.8h11.8Z"/>
        </g>
      </g>
      <g>
        <path class="st5" d="M256.3,30c-2.9-1.3-5.8-2.3-8.6-2.8-2.8-.6-5.6-.8-8.4-.8-8.2,0-15.3,2.1-21.3,6.1-4,2.7-7.2,6-9.4,10-.9-1.4-2.1-2.5-3.6-3.5-1.7-1.1-3.8-1.9-6.3-2.4-2.5-.5-5.3-.7-8.3-.7h-3.2l2.9-11.1h23.8l2.5-9.6h-34l-7.5,29h11.6c2.4,0,4.4.2,6,.5,1.6.3,2.8.8,3.7,1.4.9.6,1.5,1.3,1.8,2.1.3.8.5,1.7.4,2.6,0,1.4-.4,2.8-1.1,4.1-.7,1.3-1.7,2.5-3.1,3.6-1.3,1-3.1,1.9-5.2,2.5-2.1.6-4.5.9-7.4.9s-4.6-.1-6.7-.4c-2.1-.2-4-.5-5.6-.9l-2.3,8.9c.8.1,1.8.3,2.9.4,1.1.1,2.2.2,3.3.3,1.2,0,2.3.2,3.4.2,1.1,0,2.1,0,3.1,0,4.9,0,9.3-.5,13-1.6,3.8-1.1,6.9-2.6,9.5-4.5,1.3-1,2.4-2,3.4-3.2.6,1.6,1.4,3,2.6,4.2,1.8,1.8,4.2,3.2,7.2,4.1,3,.9,6.4,1.3,10.3,1.3,3,0,6.3-.4,9.7-1.2,3.4-.8,6.6-1.7,9.6-2.8.6-.2,1.1-.7,1.3-1.2l5.3-17.3c.2-.7-.3-1.3-1.1-1.3h-19.1c-.9.1-1.7.7-2,1.5l-1.5,4.7c-.2.7.3,1.3,1.1,1.3h11.2c0,0-2.4,7.6-2.4,7.6-1.3.4-2.8.7-4.4,1-2,.3-4,.5-6,.5-5.2,0-8.8-1.2-10.9-3.8-2.1-2.6-2.5-6.4-1-11.2,1.4-4.6,4-8.3,7.6-10.9,3.6-2.7,7.8-4,12.7-4,0,0,9-.7,16.2,5.2,1.9,1.1,2.3-.5,2.3-.5l2.2-7.1c.2-.5,0-1-.5-1.2Z"/>
        <g>
          <path class="st5" d="M234.6,16.5c4.9-4.7,10.1-4.1,16.4-3.2,10.1-3.9,13.2-10.8,14.4-12.8-13.5,15.8-25.1,4.7-33.5,14.6,0,0-13,4.3-14.4,15,.2-.7.5-1.3.8-2,4.5-10.8,16.3-11.7,16.3-11.7Z"/>
          <path class="st5" d="M250.9,13.4c10.1-3.9,13.2-10.8,14.4-12.8-13.5,15.8-25.1,4.7-33.5,14.6,0,0-13,4.3-14.4,15,.2-.7.5-1.3.8-2,7.4-7,23.1-9.3,32.7-14.9Z"/>
          <path class="st5" d="M234.6,16.5s-11.9.9-16.3,11.7c4.7-9.6,17.1-10.8,28.3-13.5,1.6-.4,3-.9,4.4-1.4-6.2-.9-11.5-1.5-16.4,3.2Z"/>
          <path class="st5" d="M256.5,18.6c.2,0,.3,0,.5,0,11.1-.5,18.6-3.6,25.6-11-13.4,8.9-23.4,7.1-31.7,5.9-1.3.5-2.8,1-4.4,1.4-11.3,2.7-23.6,3.9-28.3,13.5-.2.5-.7,1.4-.8,2,.1-.2.5-.7.6-.9,7.6-10.5,18.3-10.5,18.3-10.5,8.9-4.2,14.3-2.5,20.1-.3h.1Z"/>
          <path class="st5" d="M217.9,29.9c13.3-12.5,22.2-11,37.6-11.3.3,0,.6,0,.9,0-5.8-2.2-11.2-3.9-20.1.3,0,0-11.1,0-18.7,11.1,0,0-.1.2-.1.3.1,0,.3-.2.5-.3Z"/>
          <path class="st5" d="M256.3,18.6c-.3,0-.6,0-.9,0-15.3.3-24.2-1.2-37.5,11.3,19.9-12.6,32.3-6.8,46.2-5,16.6,2.2,24.2-5.9,26.9-7.7-18.3,8.4-26.8,4.3-34.6,1.3Z"/>
        </g>
      </g>
    </g>
  </g>
</svg>