<svg width="493" height="125" viewBox="0 0 493 125" fill="none" xmlns="http://www.w3.org/2000/svg">
<g clip-path="url(#clip0_59_263)">
<path d="M383.349 113.01H107.048L106.983 112.945L57.0254 62.1096L57.1797 61.9553L107.048 12.5254H383.347L383.41 12.5881L433.37 62.1096L433.218 62.264L383.347 113.01H383.349ZM107.232 112.574H383.166L432.755 62.1145L383.169 12.9618H107.229L57.6426 62.1145L107.232 112.574Z" fill="#325FA6"/>
<path d="M383.624 113.666H235.368V111.918H382.891L431.832 62.1212L382.899 13.6171H340.661V11.8691H383.617L383.873 12.1223L434.298 62.1044L383.624 113.666Z" fill="#325FA6"/>
<path d="M57.9488 62.7336L56.7168 61.492L106.778 11.8691H170.272V13.6171H107.499L57.9488 62.7336Z" fill="#325FA6"/>
<path d="M388.282 27.5645L423.2 62.1765L388.282 97.7072H398.331L433.064 62.1114L398.331 27.5645H388.282Z" fill="#325FA6"/>
<path d="M102.116 97.7072L67.1973 62.1765L102.116 27.5645H92.503L57.334 62.1114L91.6302 97.4998L102.116 97.7072Z" fill="#325FA6"/>
<path d="M238.845 113.086C239.01 110.437 236.996 108.157 234.348 107.992C231.699 107.827 229.418 109.841 229.253 112.489C229.089 115.138 231.102 117.419 233.751 117.584C236.4 117.748 238.68 115.735 238.845 113.086Z" fill="#325FA6"/>
<path d="M171.581 17.5467C174.235 17.5467 176.386 15.3954 176.386 12.7416C176.386 10.0878 174.235 7.93652 171.581 7.93652C168.927 7.93652 166.776 10.0878 166.776 12.7416C166.776 15.3954 168.927 17.5467 171.581 17.5467Z" fill="#325FA6"/>
<path d="M345.1 15.0196C346.115 12.5678 344.951 9.75697 342.499 8.74141C340.048 7.72585 337.237 8.89015 336.221 11.3419C335.206 13.7937 336.37 16.6045 338.822 17.6201C341.273 18.6356 344.084 17.4713 345.1 15.0196Z" fill="#325FA6"/>
<path d="M411.666 99.1567L411.355 98.8505L447.552 62.0179L411.358 26.1401L411.664 25.8291L448.169 62.0131L411.666 99.1567Z" fill="#325FA6"/>
<path d="M78.7317 99.1567L42.2271 62.0131L42.3838 61.8588L78.7341 25.8291L79.0403 26.1401L42.8443 62.0179L79.0427 98.8505L78.7317 99.1567Z" fill="#325FA6"/>
<path d="M388.278 81.8775L387.967 81.5713L407.088 62.1147L387.969 43.3452L388.275 43.0342L407.706 62.1075L388.278 81.8775Z" fill="#325FA6"/>
<path d="M102.082 81.8362L82.6929 62.1095L102.082 42.9277L102.391 43.2363L83.3101 62.1119L102.393 81.53L102.082 81.8362Z" fill="#325FA6"/>
<path d="M39.9123 48.2052H0.5V47.7688H39.7315L87.4978 0H137.685V0.436388H87.6787L39.9123 48.2052Z" fill="#325FA6"/>
<path d="M237.297 124.223H87.4978L39.7314 76.4569H15.354V76.0205H39.9123L87.6786 123.787H237.297V124.223Z" fill="#325FA6"/>
<path d="M467.107 48.2052H450.413L402.645 0.436388H253.026V0H402.828L450.594 47.7688H467.107V48.2052Z" fill="#325FA6"/>
<path d="M402.828 124.223H353.514V123.787H402.645L450.413 76.0205H492.447V76.4569H450.594L402.828 124.223Z" fill="#325FA6"/>
</g>
<defs>
<clipPath id="clip0_59_263">
<rect width="491.946" height="124.223" fill="white" transform="translate(0.5)"/>
</clipPath>
</defs>
</svg>
